<mxfile host="Electron" modified="2024-05-14T08:24:32.303Z" agent="Mozilla/5.0 (Windows NT 10.0; Win64; x64) AppleWebKit/537.36 (KHTML, like Gecko) draw.io/21.1.2 Chrome/106.0.5249.199 Electron/21.4.3 Safari/537.36" etag="2EIQ-D9pbYoFjB4rODrk" version="21.1.2" type="device" pages="2">
  <diagram name="‫עמוד-1‬" id="ktlcKRDzXrA3TcLoYLBX">
    <mxGraphModel dx="4247" dy="2020" grid="1" gridSize="10" guides="1" tooltips="1" connect="1" arrows="1" fold="1" page="1" pageScale="1" pageWidth="827" pageHeight="1169" math="0" shadow="0">
      <root>
        <mxCell id="0" />
        <mxCell id="1" parent="0" />
        <mxCell id="tmRRFg4RgQcoLrq7VbQh-4" value="Market" style="html=1;" parent="1" vertex="1">
          <mxGeometry x="770" y="170" width="150" height="40" as="geometry" />
        </mxCell>
        <mxCell id="tmRRFg4RgQcoLrq7VbQh-5" value="Market&lt;br&gt;Facade" style="html=1;" parent="1" vertex="1">
          <mxGeometry x="780" y="390" width="120" height="40" as="geometry" />
        </mxCell>
        <mxCell id="tmRRFg4RgQcoLrq7VbQh-10" value="" style="endArrow=none;html=1;rounded=0;entryX=0.5;entryY=1;entryDx=0;entryDy=0;" parent="1" target="tmRRFg4RgQcoLrq7VbQh-5" edge="1">
          <mxGeometry width="50" height="50" relative="1" as="geometry">
            <mxPoint x="840" y="480" as="sourcePoint" />
            <mxPoint x="890" y="590" as="targetPoint" />
          </mxGeometry>
        </mxCell>
        <mxCell id="tmRRFg4RgQcoLrq7VbQh-11" value="" style="endArrow=none;html=1;rounded=0;entryX=0.507;entryY=0.45;entryDx=0;entryDy=0;entryPerimeter=0;" parent="1" source="tmRRFg4RgQcoLrq7VbQh-112" edge="1">
          <mxGeometry width="50" height="50" relative="1" as="geometry">
            <mxPoint x="1260" y="450" as="sourcePoint" />
            <mxPoint x="1571" y="450" as="targetPoint" />
          </mxGeometry>
        </mxCell>
        <mxCell id="tmRRFg4RgQcoLrq7VbQh-13" value="" style="endArrow=open;html=1;endSize=12;startArrow=diamondThin;startSize=14;startFill=0;edgeStyle=orthogonalEdgeStyle;rounded=0;" parent="1" edge="1">
          <mxGeometry x="-0.125" y="-100" relative="1" as="geometry">
            <mxPoint x="839.5" y="210" as="sourcePoint" />
            <mxPoint x="839.5" y="390" as="targetPoint" />
            <Array as="points">
              <mxPoint x="839.5" y="290" />
              <mxPoint x="839.5" y="290" />
            </Array>
            <mxPoint as="offset" />
          </mxGeometry>
        </mxCell>
        <mxCell id="tmRRFg4RgQcoLrq7VbQh-15" value="1" style="edgeLabel;resizable=0;html=1;align=right;verticalAlign=top;" parent="tmRRFg4RgQcoLrq7VbQh-13" connectable="0" vertex="1">
          <mxGeometry x="1" relative="1" as="geometry">
            <mxPoint x="13" y="-40" as="offset" />
          </mxGeometry>
        </mxCell>
        <mxCell id="tmRRFg4RgQcoLrq7VbQh-16" value="1" style="edgeLabel;html=1;align=center;verticalAlign=middle;resizable=0;points=[];" parent="tmRRFg4RgQcoLrq7VbQh-13" vertex="1" connectable="0">
          <mxGeometry x="-0.6244" y="7" relative="1" as="geometry">
            <mxPoint y="-14" as="offset" />
          </mxGeometry>
        </mxCell>
        <mxCell id="tmRRFg4RgQcoLrq7VbQh-17" value="SecuritySystem" style="html=1;" parent="1" vertex="1">
          <mxGeometry x="780" y="600" width="120" height="40" as="geometry" />
        </mxCell>
        <mxCell id="tmRRFg4RgQcoLrq7VbQh-18" value="" style="endArrow=open;endFill=1;endSize=12;html=1;rounded=0;entryX=0.5;entryY=0;entryDx=0;entryDy=0;" parent="1" target="tmRRFg4RgQcoLrq7VbQh-17" edge="1">
          <mxGeometry width="160" relative="1" as="geometry">
            <mxPoint x="840" y="480" as="sourcePoint" />
            <mxPoint x="1030" y="600" as="targetPoint" />
          </mxGeometry>
        </mxCell>
        <mxCell id="tmRRFg4RgQcoLrq7VbQh-22" value="SupplierAdapter" style="html=1;" parent="1" vertex="1">
          <mxGeometry x="960" y="600" width="110" height="36.7" as="geometry" />
        </mxCell>
        <mxCell id="tmRRFg4RgQcoLrq7VbQh-23" value="" style="endArrow=open;endFill=1;endSize=12;html=1;rounded=0;entryX=0.5;entryY=0;entryDx=0;entryDy=0;" parent="1" source="tmRRFg4RgQcoLrq7VbQh-26" target="tmRRFg4RgQcoLrq7VbQh-22" edge="1">
          <mxGeometry width="160" relative="1" as="geometry">
            <mxPoint x="1015" y="450" as="sourcePoint" />
            <mxPoint x="990" y="660" as="targetPoint" />
          </mxGeometry>
        </mxCell>
        <mxCell id="tmRRFg4RgQcoLrq7VbQh-25" value="" style="endArrow=none;html=1;rounded=0;" parent="1" source="tmRRFg4RgQcoLrq7VbQh-81" target="tmRRFg4RgQcoLrq7VbQh-24" edge="1">
          <mxGeometry width="50" height="50" relative="1" as="geometry">
            <mxPoint x="310" y="450" as="sourcePoint" />
            <mxPoint x="1390" y="450" as="targetPoint" />
          </mxGeometry>
        </mxCell>
        <mxCell id="tmRRFg4RgQcoLrq7VbQh-24" value="" style="shape=waypoint;sketch=0;fillStyle=solid;size=6;pointerEvents=1;points=[];fillColor=none;resizable=0;rotatable=0;perimeter=centerPerimeter;snapToPoint=1;" parent="1" vertex="1">
          <mxGeometry x="830" y="440" width="20" height="20" as="geometry" />
        </mxCell>
        <mxCell id="tmRRFg4RgQcoLrq7VbQh-27" value="" style="endArrow=open;endFill=1;endSize=12;html=1;rounded=0;entryDx=0;entryDy=0;" parent="1" target="tmRRFg4RgQcoLrq7VbQh-26" edge="1">
          <mxGeometry width="160" relative="1" as="geometry">
            <mxPoint x="1015" y="450" as="sourcePoint" />
            <mxPoint x="1015" y="600" as="targetPoint" />
          </mxGeometry>
        </mxCell>
        <mxCell id="tmRRFg4RgQcoLrq7VbQh-26" value="" style="shape=waypoint;sketch=0;fillStyle=solid;size=6;pointerEvents=1;points=[];fillColor=none;resizable=0;rotatable=0;perimeter=centerPerimeter;snapToPoint=1;" parent="1" vertex="1">
          <mxGeometry x="1005" y="440" width="20" height="20" as="geometry" />
        </mxCell>
        <mxCell id="tmRRFg4RgQcoLrq7VbQh-28" value="MarketRepository" style="html=1;" parent="1" vertex="1">
          <mxGeometry x="1311" y="600" width="120" height="40" as="geometry" />
        </mxCell>
        <mxCell id="tmRRFg4RgQcoLrq7VbQh-30" value="" style="endArrow=none;html=1;rounded=0;" parent="1" edge="1">
          <mxGeometry width="50" height="50" relative="1" as="geometry">
            <mxPoint x="1170" y="450" as="sourcePoint" />
            <mxPoint x="1260" y="450" as="targetPoint" />
          </mxGeometry>
        </mxCell>
        <mxCell id="tmRRFg4RgQcoLrq7VbQh-33" value="" style="endArrow=open;endFill=1;endSize=12;html=1;rounded=0;" parent="1" edge="1">
          <mxGeometry width="160" relative="1" as="geometry">
            <mxPoint x="1260" y="450" as="sourcePoint" />
            <mxPoint x="1260" y="450" as="targetPoint" />
          </mxGeometry>
        </mxCell>
        <mxCell id="tmRRFg4RgQcoLrq7VbQh-34" value="1" style="text;html=1;align=center;verticalAlign=middle;resizable=0;points=[];autosize=1;strokeColor=none;fillColor=none;" parent="1" vertex="1">
          <mxGeometry x="820" y="555" width="30" height="30" as="geometry" />
        </mxCell>
        <mxCell id="tmRRFg4RgQcoLrq7VbQh-35" value="1" style="text;html=1;align=center;verticalAlign=middle;resizable=0;points=[];autosize=1;strokeColor=none;fillColor=none;" parent="1" vertex="1">
          <mxGeometry x="820" y="450" width="30" height="30" as="geometry" />
        </mxCell>
        <mxCell id="tmRRFg4RgQcoLrq7VbQh-36" value="1" style="text;html=1;align=center;verticalAlign=middle;resizable=0;points=[];autosize=1;strokeColor=none;fillColor=none;" parent="1" vertex="1">
          <mxGeometry x="1005" y="560" width="30" height="30" as="geometry" />
        </mxCell>
        <mxCell id="tmRRFg4RgQcoLrq7VbQh-37" value="1" style="text;html=1;align=center;verticalAlign=middle;resizable=0;points=[];autosize=1;strokeColor=none;fillColor=none;" parent="1" vertex="1">
          <mxGeometry x="1005" y="450" width="30" height="30" as="geometry" />
        </mxCell>
        <mxCell id="tmRRFg4RgQcoLrq7VbQh-39" value="1" style="text;html=1;align=center;verticalAlign=middle;resizable=0;points=[];autosize=1;strokeColor=none;fillColor=none;" parent="1" vertex="1">
          <mxGeometry x="1346" y="450" width="30" height="30" as="geometry" />
        </mxCell>
        <mxCell id="tmRRFg4RgQcoLrq7VbQh-41" value="StoreController" style="html=1;" parent="1" vertex="1">
          <mxGeometry x="1241" y="700" width="120" height="41.7" as="geometry" />
        </mxCell>
        <mxCell id="tmRRFg4RgQcoLrq7VbQh-42" value="Store" style="html=1;" parent="1" vertex="1">
          <mxGeometry x="1230" y="810" width="140" height="100" as="geometry" />
        </mxCell>
        <mxCell id="tmRRFg4RgQcoLrq7VbQh-43" value="" style="endArrow=none;html=1;rounded=0;entryX=0.322;entryY=0.894;entryDx=0;entryDy=0;entryPerimeter=0;" parent="1" target="tmRRFg4RgQcoLrq7VbQh-44" edge="1">
          <mxGeometry relative="1" as="geometry">
            <mxPoint x="1296" y="741.7" as="sourcePoint" />
            <mxPoint x="1296" y="810" as="targetPoint" />
            <Array as="points" />
          </mxGeometry>
        </mxCell>
        <mxCell id="tmRRFg4RgQcoLrq7VbQh-45" value="1" style="edgeLabel;html=1;align=center;verticalAlign=middle;resizable=0;points=[];" parent="tmRRFg4RgQcoLrq7VbQh-43" vertex="1" connectable="0">
          <mxGeometry x="-0.7904" y="5" relative="1" as="geometry">
            <mxPoint as="offset" />
          </mxGeometry>
        </mxCell>
        <mxCell id="tmRRFg4RgQcoLrq7VbQh-44" value="*" style="text;html=1;align=center;verticalAlign=middle;resizable=0;points=[];autosize=1;strokeColor=none;fillColor=none;" parent="1" vertex="1">
          <mxGeometry x="1286" y="785" width="30" height="30" as="geometry" />
        </mxCell>
        <mxCell id="tmRRFg4RgQcoLrq7VbQh-47" value="" style="endArrow=none;html=1;rounded=0;" parent="1" edge="1">
          <mxGeometry relative="1" as="geometry">
            <mxPoint x="1291" y="660" as="sourcePoint" />
            <mxPoint x="1471" y="660" as="targetPoint" />
          </mxGeometry>
        </mxCell>
        <mxCell id="tmRRFg4RgQcoLrq7VbQh-53" value="have" style="edgeLabel;html=1;align=center;verticalAlign=middle;resizable=0;points=[];" parent="tmRRFg4RgQcoLrq7VbQh-47" vertex="1" connectable="0">
          <mxGeometry x="-0.9088" relative="1" as="geometry">
            <mxPoint x="2" as="offset" />
          </mxGeometry>
        </mxCell>
        <mxCell id="tmRRFg4RgQcoLrq7VbQh-68" value="have" style="edgeLabel;html=1;align=center;verticalAlign=middle;resizable=0;points=[];" parent="tmRRFg4RgQcoLrq7VbQh-47" vertex="1" connectable="0">
          <mxGeometry x="0.8825" relative="1" as="geometry">
            <mxPoint as="offset" />
          </mxGeometry>
        </mxCell>
        <mxCell id="tmRRFg4RgQcoLrq7VbQh-48" value="" style="endArrow=none;html=1;rounded=0;" parent="1" edge="1">
          <mxGeometry relative="1" as="geometry">
            <mxPoint x="1370.5" y="640" as="sourcePoint" />
            <mxPoint x="1370.5" y="660" as="targetPoint" />
            <Array as="points">
              <mxPoint x="1370.5" y="640" />
            </Array>
          </mxGeometry>
        </mxCell>
        <mxCell id="tmRRFg4RgQcoLrq7VbQh-50" value="" style="endArrow=none;html=1;rounded=0;entryX=0.411;entryY=-0.005;entryDx=0;entryDy=0;entryPerimeter=0;" parent="1" target="tmRRFg4RgQcoLrq7VbQh-41" edge="1">
          <mxGeometry relative="1" as="geometry">
            <mxPoint x="1291" y="670" as="sourcePoint" />
            <mxPoint x="1291" y="718.3" as="targetPoint" />
            <Array as="points">
              <mxPoint x="1291" y="698.3" />
            </Array>
          </mxGeometry>
        </mxCell>
        <mxCell id="tmRRFg4RgQcoLrq7VbQh-51" value="1" style="text;html=1;align=center;verticalAlign=middle;resizable=0;points=[];autosize=1;strokeColor=none;fillColor=none;" parent="1" vertex="1">
          <mxGeometry x="1281" y="678.3" width="30" height="30" as="geometry" />
        </mxCell>
        <mxCell id="tmRRFg4RgQcoLrq7VbQh-52" value="1" style="text;html=1;align=center;verticalAlign=middle;resizable=0;points=[];autosize=1;strokeColor=none;fillColor=none;" parent="1" vertex="1">
          <mxGeometry x="1346" y="655" width="30" height="30" as="geometry" />
        </mxCell>
        <mxCell id="tmRRFg4RgQcoLrq7VbQh-55" value="" style="shape=waypoint;sketch=0;fillStyle=solid;size=6;pointerEvents=1;points=[];fillColor=none;resizable=0;rotatable=0;perimeter=centerPerimeter;snapToPoint=1;" parent="1" vertex="1">
          <mxGeometry x="1361" y="648.3" width="20" height="20" as="geometry" />
        </mxCell>
        <mxCell id="tmRRFg4RgQcoLrq7VbQh-56" value="OrderController" style="html=1;" parent="1" vertex="1">
          <mxGeometry x="1411" y="700" width="120" height="40" as="geometry" />
        </mxCell>
        <mxCell id="tmRRFg4RgQcoLrq7VbQh-57" value="Order" style="html=1;" parent="1" vertex="1">
          <mxGeometry x="1411" y="800" width="120" height="40" as="geometry" />
        </mxCell>
        <mxCell id="tmRRFg4RgQcoLrq7VbQh-58" value="" style="endArrow=none;endFill=0;endSize=24;html=1;rounded=0;exitX=0.5;exitY=0;exitDx=0;exitDy=0;entryX=0.5;entryY=1;entryDx=0;entryDy=0;startArrow=none;startFill=0;" parent="1" source="tmRRFg4RgQcoLrq7VbQh-57" target="tmRRFg4RgQcoLrq7VbQh-56" edge="1">
          <mxGeometry width="160" relative="1" as="geometry">
            <mxPoint x="1474" y="730" as="sourcePoint" />
            <mxPoint x="1407" y="770" as="targetPoint" />
          </mxGeometry>
        </mxCell>
        <mxCell id="tmRRFg4RgQcoLrq7VbQh-59" value="&lt;Enum&gt;&#xa;OrderStatus" style="swimlane;fontStyle=0;childLayout=stackLayout;horizontal=1;startSize=26;fillColor=none;horizontalStack=0;resizeParent=1;resizeParentMax=0;resizeLast=0;collapsible=1;marginBottom=0;" parent="1" vertex="1">
          <mxGeometry x="1411" y="930" width="120" height="130" as="geometry">
            <mxRectangle x="1300" y="930" width="90" height="40" as="alternateBounds" />
          </mxGeometry>
        </mxCell>
        <mxCell id="tmRRFg4RgQcoLrq7VbQh-60" value="+ pending" style="text;strokeColor=none;fillColor=none;align=left;verticalAlign=top;spacingLeft=4;spacingRight=4;overflow=hidden;rotatable=0;points=[[0,0.5],[1,0.5]];portConstraint=eastwest;" parent="tmRRFg4RgQcoLrq7VbQh-59" vertex="1">
          <mxGeometry y="26" width="120" height="26" as="geometry" />
        </mxCell>
        <mxCell id="tmRRFg4RgQcoLrq7VbQh-61" value="+ submit" style="text;strokeColor=none;fillColor=none;align=left;verticalAlign=top;spacingLeft=4;spacingRight=4;overflow=hidden;rotatable=0;points=[[0,0.5],[1,0.5]];portConstraint=eastwest;" parent="tmRRFg4RgQcoLrq7VbQh-59" vertex="1">
          <mxGeometry y="52" width="120" height="26" as="geometry" />
        </mxCell>
        <mxCell id="tmRRFg4RgQcoLrq7VbQh-62" value="+ deliverd" style="text;strokeColor=none;fillColor=none;align=left;verticalAlign=top;spacingLeft=4;spacingRight=4;overflow=hidden;rotatable=0;points=[[0,0.5],[1,0.5]];portConstraint=eastwest;" parent="tmRRFg4RgQcoLrq7VbQh-59" vertex="1">
          <mxGeometry y="78" width="120" height="26" as="geometry" />
        </mxCell>
        <mxCell id="tmRRFg4RgQcoLrq7VbQh-63" value="+ cancel" style="text;strokeColor=none;fillColor=none;align=left;verticalAlign=top;spacingLeft=4;spacingRight=4;overflow=hidden;rotatable=0;points=[[0,0.5],[1,0.5]];portConstraint=eastwest;" parent="tmRRFg4RgQcoLrq7VbQh-59" vertex="1">
          <mxGeometry y="104" width="120" height="26" as="geometry" />
        </mxCell>
        <mxCell id="tmRRFg4RgQcoLrq7VbQh-64" value="" style="endArrow=none;endFill=0;endSize=12;html=1;rounded=0;exitX=0.5;exitY=1;exitDx=0;exitDy=0;entryX=0.5;entryY=0;entryDx=0;entryDy=0;startArrow=none;startFill=0;" parent="1" source="tmRRFg4RgQcoLrq7VbQh-57" target="tmRRFg4RgQcoLrq7VbQh-59" edge="1">
          <mxGeometry width="160" relative="1" as="geometry">
            <mxPoint x="1458" y="890" as="sourcePoint" />
            <mxPoint x="1618" y="890" as="targetPoint" />
          </mxGeometry>
        </mxCell>
        <mxCell id="tmRRFg4RgQcoLrq7VbQh-67" value="" style="endArrow=none;html=1;rounded=0;entryX=0.499;entryY=-0.043;entryDx=0;entryDy=0;entryPerimeter=0;" parent="1" target="tmRRFg4RgQcoLrq7VbQh-56" edge="1">
          <mxGeometry relative="1" as="geometry">
            <mxPoint x="1470.76" y="665" as="sourcePoint" />
            <mxPoint x="1471" y="685" as="targetPoint" />
            <Array as="points" />
          </mxGeometry>
        </mxCell>
        <mxCell id="tmRRFg4RgQcoLrq7VbQh-69" value="1" style="text;html=1;align=center;verticalAlign=middle;resizable=0;points=[];autosize=1;strokeColor=none;fillColor=none;" parent="1" vertex="1">
          <mxGeometry x="1451" y="678.3" width="30" height="30" as="geometry" />
        </mxCell>
        <mxCell id="tmRRFg4RgQcoLrq7VbQh-70" value="1" style="text;html=1;align=center;verticalAlign=middle;resizable=0;points=[];autosize=1;strokeColor=none;fillColor=none;" parent="1" vertex="1">
          <mxGeometry x="1361" y="655" width="30" height="30" as="geometry" />
        </mxCell>
        <mxCell id="tmRRFg4RgQcoLrq7VbQh-73" value="MarketLogger" style="html=1;" parent="1" vertex="1">
          <mxGeometry x="1461" y="210" width="120" height="40" as="geometry" />
        </mxCell>
        <mxCell id="tmRRFg4RgQcoLrq7VbQh-77" value="PaymentAdapter" style="html=1;" parent="1" vertex="1">
          <mxGeometry x="610" y="600" width="110" height="40" as="geometry" />
        </mxCell>
        <mxCell id="tmRRFg4RgQcoLrq7VbQh-82" value="" style="endArrow=none;html=1;rounded=0;" parent="1" source="tmRRFg4RgQcoLrq7VbQh-140" target="tmRRFg4RgQcoLrq7VbQh-81" edge="1">
          <mxGeometry width="50" height="50" relative="1" as="geometry">
            <mxPoint x="310" y="450" as="sourcePoint" />
            <mxPoint x="840" y="450" as="targetPoint" />
          </mxGeometry>
        </mxCell>
        <mxCell id="tmRRFg4RgQcoLrq7VbQh-81" value="" style="shape=waypoint;sketch=0;fillStyle=solid;size=6;pointerEvents=1;points=[];fillColor=none;resizable=0;rotatable=0;perimeter=centerPerimeter;snapToPoint=1;" parent="1" vertex="1">
          <mxGeometry x="650" y="440" width="20" height="20" as="geometry" />
        </mxCell>
        <mxCell id="tmRRFg4RgQcoLrq7VbQh-83" value="" style="endArrow=open;endFill=1;endSize=12;html=1;rounded=0;entryX=0.5;entryY=0;entryDx=0;entryDy=0;" parent="1" edge="1">
          <mxGeometry width="160" relative="1" as="geometry">
            <mxPoint x="659.71" y="450" as="sourcePoint" />
            <mxPoint x="659.71" y="600" as="targetPoint" />
          </mxGeometry>
        </mxCell>
        <mxCell id="tmRRFg4RgQcoLrq7VbQh-84" value="1" style="text;html=1;align=center;verticalAlign=middle;resizable=0;points=[];autosize=1;strokeColor=none;fillColor=none;" parent="1" vertex="1">
          <mxGeometry x="655" y="445" width="30" height="30" as="geometry" />
        </mxCell>
        <mxCell id="tmRRFg4RgQcoLrq7VbQh-85" value="1" style="text;html=1;align=center;verticalAlign=middle;resizable=0;points=[];autosize=1;strokeColor=none;fillColor=none;" parent="1" vertex="1">
          <mxGeometry x="655" y="565" width="30" height="30" as="geometry" />
        </mxCell>
        <mxCell id="tmRRFg4RgQcoLrq7VbQh-89" value="*" style="text;html=1;align=center;verticalAlign=middle;resizable=0;points=[];autosize=1;strokeColor=none;fillColor=none;" parent="1" vertex="1">
          <mxGeometry x="1466" y="775" width="30" height="30" as="geometry" />
        </mxCell>
        <mxCell id="tmRRFg4RgQcoLrq7VbQh-90" value="1" style="text;html=1;align=center;verticalAlign=middle;resizable=0;points=[];autosize=1;strokeColor=none;fillColor=none;" parent="1" vertex="1">
          <mxGeometry x="1466" y="740" width="30" height="30" as="geometry" />
        </mxCell>
        <mxCell id="tmRRFg4RgQcoLrq7VbQh-91" style="edgeStyle=orthogonalEdgeStyle;rounded=0;orthogonalLoop=1;jettySize=auto;html=1;entryX=0.5;entryY=0;entryDx=0;entryDy=0;endArrow=none;endFill=0;" parent="1" source="tmRRFg4RgQcoLrq7VbQh-92" target="tmRRFg4RgQcoLrq7VbQh-93" edge="1">
          <mxGeometry relative="1" as="geometry" />
        </mxCell>
        <mxCell id="tmRRFg4RgQcoLrq7VbQh-92" value="Inventory" style="html=1;" parent="1" vertex="1">
          <mxGeometry x="1236.5" y="950" width="120" height="40" as="geometry" />
        </mxCell>
        <mxCell id="tmRRFg4RgQcoLrq7VbQh-93" value="product" style="rounded=0;whiteSpace=wrap;html=1;" parent="1" vertex="1">
          <mxGeometry x="1235.5" y="1043.3" width="121" height="36.7" as="geometry" />
        </mxCell>
        <mxCell id="tmRRFg4RgQcoLrq7VbQh-94" value="*" style="text;html=1;align=center;verticalAlign=middle;resizable=0;points=[];autosize=1;strokeColor=none;fillColor=none;" parent="1" vertex="1">
          <mxGeometry x="1286.5" y="1020" width="30" height="30" as="geometry" />
        </mxCell>
        <mxCell id="tmRRFg4RgQcoLrq7VbQh-95" value="1" style="text;html=1;align=center;verticalAlign=middle;resizable=0;points=[];autosize=1;strokeColor=none;fillColor=none;" parent="1" vertex="1">
          <mxGeometry x="1291.5" y="985" width="30" height="30" as="geometry" />
        </mxCell>
        <mxCell id="tmRRFg4RgQcoLrq7VbQh-96" style="edgeStyle=orthogonalEdgeStyle;rounded=0;orthogonalLoop=1;jettySize=auto;html=1;entryX=0.499;entryY=-0.039;entryDx=0;entryDy=0;endArrow=none;endFill=0;entryPerimeter=0;" parent="1" target="tmRRFg4RgQcoLrq7VbQh-92" edge="1">
          <mxGeometry relative="1" as="geometry">
            <mxPoint x="1296.39" y="910" as="sourcePoint" />
            <mxPoint x="1296.39" y="943" as="targetPoint" />
          </mxGeometry>
        </mxCell>
        <mxCell id="tmRRFg4RgQcoLrq7VbQh-97" value="*" style="text;html=1;align=center;verticalAlign=middle;resizable=0;points=[];autosize=1;strokeColor=none;fillColor=none;" parent="1" vertex="1">
          <mxGeometry x="1286.5" y="910" width="30" height="30" as="geometry" />
        </mxCell>
        <mxCell id="tmRRFg4RgQcoLrq7VbQh-98" value="1" style="text;html=1;align=center;verticalAlign=middle;resizable=0;points=[];autosize=1;strokeColor=none;fillColor=none;" parent="1" vertex="1">
          <mxGeometry x="1291.5" y="925" width="30" height="30" as="geometry" />
        </mxCell>
        <mxCell id="tmRRFg4RgQcoLrq7VbQh-99" value="MessageRepository" style="rounded=0;whiteSpace=wrap;html=1;" parent="1" vertex="1">
          <mxGeometry x="1095" y="599.9999999999999" width="120" height="40" as="geometry" />
        </mxCell>
        <mxCell id="tmRRFg4RgQcoLrq7VbQh-101" value="" style="endArrow=open;endFill=1;endSize=12;html=1;rounded=0;entryX=0.5;entryY=0;entryDx=0;entryDy=0;exitX=0.355;exitY=0.774;exitDx=0;exitDy=0;exitPerimeter=0;" parent="1" edge="1">
          <mxGeometry width="160" relative="1" as="geometry">
            <mxPoint x="1370.76" y="450" as="sourcePoint" />
            <mxPoint x="1370.76" y="600" as="targetPoint" />
          </mxGeometry>
        </mxCell>
        <mxCell id="tmRRFg4RgQcoLrq7VbQh-102" value="1" style="edgeLabel;html=1;align=center;verticalAlign=middle;resizable=0;points=[];" parent="tmRRFg4RgQcoLrq7VbQh-101" vertex="1" connectable="0">
          <mxGeometry x="0.6541" y="5" relative="1" as="geometry">
            <mxPoint x="-11" y="1" as="offset" />
          </mxGeometry>
        </mxCell>
        <mxCell id="tmRRFg4RgQcoLrq7VbQh-108" value="" style="endArrow=none;html=1;rounded=0;" parent="1" source="tmRRFg4RgQcoLrq7VbQh-114" edge="1">
          <mxGeometry width="50" height="50" relative="1" as="geometry">
            <mxPoint x="840" y="450" as="sourcePoint" />
            <mxPoint x="1170" y="450" as="targetPoint" />
          </mxGeometry>
        </mxCell>
        <mxCell id="tmRRFg4RgQcoLrq7VbQh-109" value="" style="endArrow=open;endFill=1;endSize=12;html=1;rounded=0;entryX=0.5;entryY=0;entryDx=0;entryDy=0;" parent="1" edge="1">
          <mxGeometry width="160" relative="1" as="geometry">
            <mxPoint x="1154.66" y="450" as="sourcePoint" />
            <mxPoint x="1154.66" y="600" as="targetPoint" />
          </mxGeometry>
        </mxCell>
        <mxCell id="tmRRFg4RgQcoLrq7VbQh-111" value="1" style="edgeLabel;html=1;align=center;verticalAlign=middle;resizable=0;points=[];" parent="tmRRFg4RgQcoLrq7VbQh-109" vertex="1" connectable="0">
          <mxGeometry x="0.648" y="10" relative="1" as="geometry">
            <mxPoint as="offset" />
          </mxGeometry>
        </mxCell>
        <mxCell id="tmRRFg4RgQcoLrq7VbQh-110" value="1" style="text;html=1;align=center;verticalAlign=middle;resizable=0;points=[];autosize=1;strokeColor=none;fillColor=none;" parent="1" vertex="1">
          <mxGeometry x="1145" y="445" width="30" height="30" as="geometry" />
        </mxCell>
        <mxCell id="tmRRFg4RgQcoLrq7VbQh-113" value="" style="endArrow=none;html=1;rounded=0;entryDx=0;entryDy=0;entryPerimeter=0;" parent="1" target="tmRRFg4RgQcoLrq7VbQh-112" edge="1">
          <mxGeometry width="50" height="50" relative="1" as="geometry">
            <mxPoint x="1260" y="450" as="sourcePoint" />
            <mxPoint x="1571" y="450" as="targetPoint" />
          </mxGeometry>
        </mxCell>
        <mxCell id="tmRRFg4RgQcoLrq7VbQh-112" value="" style="shape=waypoint;sketch=0;fillStyle=solid;size=6;pointerEvents=1;points=[];fillColor=none;resizable=0;rotatable=0;perimeter=centerPerimeter;snapToPoint=1;" parent="1" vertex="1">
          <mxGeometry x="1361" y="440" width="20" height="20" as="geometry" />
        </mxCell>
        <mxCell id="tmRRFg4RgQcoLrq7VbQh-127" value="" style="endArrow=none;endFill=0;endSize=12;html=1;rounded=0;exitX=0.459;exitY=0.953;exitDx=0;exitDy=0;entryX=0.5;entryY=0;entryDx=0;entryDy=0;startArrow=none;startFill=0;exitPerimeter=0;" parent="1" source="tmRRFg4RgQcoLrq7VbQh-99" edge="1">
          <mxGeometry width="160" relative="1" as="geometry">
            <mxPoint x="1150" y="645" as="sourcePoint" />
            <mxPoint x="1150" y="735" as="targetPoint" />
          </mxGeometry>
        </mxCell>
        <mxCell id="tmRRFg4RgQcoLrq7VbQh-128" value="Message" style="html=1;" parent="1" vertex="1">
          <mxGeometry x="1095" y="735" width="120" height="40" as="geometry" />
        </mxCell>
        <mxCell id="tmRRFg4RgQcoLrq7VbQh-129" value="" style="endArrow=none;html=1;rounded=0;" parent="1" source="tmRRFg4RgQcoLrq7VbQh-24" target="tmRRFg4RgQcoLrq7VbQh-114" edge="1">
          <mxGeometry width="50" height="50" relative="1" as="geometry">
            <mxPoint x="840" y="450" as="sourcePoint" />
            <mxPoint x="1170" y="450" as="targetPoint" />
          </mxGeometry>
        </mxCell>
        <mxCell id="tmRRFg4RgQcoLrq7VbQh-114" value="" style="shape=waypoint;sketch=0;fillStyle=solid;size=6;pointerEvents=1;points=[];fillColor=none;resizable=0;rotatable=0;perimeter=centerPerimeter;snapToPoint=1;" parent="1" vertex="1">
          <mxGeometry x="1145" y="440" width="20" height="20" as="geometry" />
        </mxCell>
        <mxCell id="tmRRFg4RgQcoLrq7VbQh-130" value="1" style="text;html=1;align=center;verticalAlign=middle;resizable=0;points=[];autosize=1;strokeColor=none;fillColor=none;" parent="1" vertex="1">
          <mxGeometry x="1145" y="635" width="30" height="30" as="geometry" />
        </mxCell>
        <mxCell id="tmRRFg4RgQcoLrq7VbQh-131" value="*" style="text;html=1;align=center;verticalAlign=middle;resizable=0;points=[];autosize=1;strokeColor=none;fillColor=none;" parent="1" vertex="1">
          <mxGeometry x="1145" y="708.3" width="30" height="30" as="geometry" />
        </mxCell>
        <mxCell id="tmRRFg4RgQcoLrq7VbQh-133" value="" style="endArrow=none;endFill=0;endSize=12;html=1;rounded=0;exitX=0.435;exitY=0.993;exitDx=0;exitDy=0;startArrow=none;startFill=0;exitPerimeter=0;entryX=0.75;entryY=0.949;entryDx=0;entryDy=0;entryPerimeter=0;" parent="1" source="tmRRFg4RgQcoLrq7VbQh-128" target="tmRRFg4RgQcoLrq7VbQh-134" edge="1">
          <mxGeometry width="160" relative="1" as="geometry">
            <mxPoint x="1020" y="830" as="sourcePoint" />
            <mxPoint x="1240" y="830" as="targetPoint" />
            <Array as="points">
              <mxPoint x="1147" y="830" />
            </Array>
          </mxGeometry>
        </mxCell>
        <mxCell id="tmRRFg4RgQcoLrq7VbQh-136" value="belongs to" style="edgeLabel;html=1;align=center;verticalAlign=middle;resizable=0;points=[];" parent="tmRRFg4RgQcoLrq7VbQh-133" vertex="1" connectable="0">
          <mxGeometry x="0.5388" y="1" relative="1" as="geometry">
            <mxPoint x="-6" as="offset" />
          </mxGeometry>
        </mxCell>
        <mxCell id="tmRRFg4RgQcoLrq7VbQh-137" value="have" style="edgeLabel;html=1;align=center;verticalAlign=middle;resizable=0;points=[];" parent="tmRRFg4RgQcoLrq7VbQh-133" vertex="1" connectable="0">
          <mxGeometry x="-0.3989" relative="1" as="geometry">
            <mxPoint y="-29" as="offset" />
          </mxGeometry>
        </mxCell>
        <mxCell id="tmRRFg4RgQcoLrq7VbQh-134" value="1" style="text;html=1;align=center;verticalAlign=middle;resizable=0;points=[];autosize=1;strokeColor=none;fillColor=none;" parent="1" vertex="1">
          <mxGeometry x="1206.5" y="800" width="30" height="30" as="geometry" />
        </mxCell>
        <mxCell id="tmRRFg4RgQcoLrq7VbQh-135" value="*" style="text;html=1;align=center;verticalAlign=middle;resizable=0;points=[];autosize=1;strokeColor=none;fillColor=none;" parent="1" vertex="1">
          <mxGeometry x="1135" y="765" width="30" height="30" as="geometry" />
        </mxCell>
        <mxCell id="tmRRFg4RgQcoLrq7VbQh-138" value="UserController" style="html=1;" parent="1" vertex="1">
          <mxGeometry x="310" y="760" width="120" height="40" as="geometry" />
        </mxCell>
        <mxCell id="tmRRFg4RgQcoLrq7VbQh-139" value="" style="endArrow=open;endFill=1;endSize=12;html=1;rounded=0;" parent="1" source="tmRRFg4RgQcoLrq7VbQh-140" edge="1">
          <mxGeometry width="160" relative="1" as="geometry">
            <mxPoint x="360" y="450" as="sourcePoint" />
            <mxPoint x="360" y="760" as="targetPoint" />
          </mxGeometry>
        </mxCell>
        <mxCell id="tmRRFg4RgQcoLrq7VbQh-141" value="" style="endArrow=open;endFill=1;endSize=12;html=1;rounded=0;" parent="1" target="tmRRFg4RgQcoLrq7VbQh-140" edge="1">
          <mxGeometry width="160" relative="1" as="geometry">
            <mxPoint x="360" y="450" as="sourcePoint" />
            <mxPoint x="360" y="760" as="targetPoint" />
          </mxGeometry>
        </mxCell>
        <mxCell id="tmRRFg4RgQcoLrq7VbQh-140" value="" style="shape=waypoint;sketch=0;fillStyle=solid;size=6;pointerEvents=1;points=[];fillColor=none;resizable=0;rotatable=0;perimeter=centerPerimeter;snapToPoint=1;" parent="1" vertex="1">
          <mxGeometry x="350" y="440" width="20" height="20" as="geometry" />
        </mxCell>
        <mxCell id="tmRRFg4RgQcoLrq7VbQh-142" value="1" style="text;html=1;align=center;verticalAlign=middle;resizable=0;points=[];autosize=1;strokeColor=none;fillColor=none;" parent="1" vertex="1">
          <mxGeometry x="355" y="725" width="30" height="30" as="geometry" />
        </mxCell>
        <mxCell id="tmRRFg4RgQcoLrq7VbQh-143" value="1" style="text;html=1;align=center;verticalAlign=middle;resizable=0;points=[];autosize=1;strokeColor=none;fillColor=none;" parent="1" vertex="1">
          <mxGeometry x="355" y="455" width="30" height="30" as="geometry" />
        </mxCell>
        <mxCell id="tmRRFg4RgQcoLrq7VbQh-149" value="ShoppingCart" style="html=1;" parent="1" vertex="1">
          <mxGeometry x="875" y="872.5" width="130" height="45" as="geometry" />
        </mxCell>
        <mxCell id="tmRRFg4RgQcoLrq7VbQh-150" value="Basket" style="html=1;" parent="1" vertex="1">
          <mxGeometry x="875" y="1080" width="140" height="40" as="geometry" />
        </mxCell>
        <mxCell id="tmRRFg4RgQcoLrq7VbQh-152" value="" style="endArrow=none;html=1;rounded=0;exitX=0.474;exitY=0.999;exitDx=0;exitDy=0;entryX=0.447;entryY=0.008;entryDx=0;entryDy=0;exitPerimeter=0;entryPerimeter=0;" parent="1" source="tmRRFg4RgQcoLrq7VbQh-149" target="tmRRFg4RgQcoLrq7VbQh-150" edge="1">
          <mxGeometry width="50" height="50" relative="1" as="geometry">
            <mxPoint x="800" y="1020" as="sourcePoint" />
            <mxPoint x="1035" y="1020" as="targetPoint" />
          </mxGeometry>
        </mxCell>
        <mxCell id="tmRRFg4RgQcoLrq7VbQh-153" value="1" style="text;html=1;align=center;verticalAlign=middle;resizable=0;points=[];autosize=1;strokeColor=none;fillColor=none;" parent="1" vertex="1">
          <mxGeometry x="940" y="915" width="30" height="30" as="geometry" />
        </mxCell>
        <mxCell id="tmRRFg4RgQcoLrq7VbQh-154" value="*" style="text;html=1;align=center;verticalAlign=middle;resizable=0;points=[];autosize=1;strokeColor=none;fillColor=none;" parent="1" vertex="1">
          <mxGeometry x="930" y="1060" width="30" height="30" as="geometry" />
        </mxCell>
        <mxCell id="tmRRFg4RgQcoLrq7VbQh-156" value="1" style="text;html=1;align=center;verticalAlign=middle;resizable=0;points=[];autosize=1;strokeColor=none;fillColor=none;" parent="1" vertex="1">
          <mxGeometry x="840" y="850" width="30" height="30" as="geometry" />
        </mxCell>
        <mxCell id="tmRRFg4RgQcoLrq7VbQh-157" value="Subscriber" style="html=1;" parent="1" vertex="1">
          <mxGeometry x="520" y="1003.3" width="120" height="40" as="geometry" />
        </mxCell>
        <mxCell id="tmRRFg4RgQcoLrq7VbQh-158" value="" style="endArrow=none;html=1;rounded=0;entryX=0.959;entryY=0.873;entryDx=0;entryDy=0;entryPerimeter=0;exitX=0.029;exitY=1.436;exitDx=0;exitDy=0;exitPerimeter=0;" parent="1" target="tmRRFg4RgQcoLrq7VbQh-160" edge="1">
          <mxGeometry width="50" height="50" relative="1" as="geometry">
            <mxPoint x="575.8699999999999" y="913.0799999999999" as="sourcePoint" />
            <mxPoint x="880" y="912" as="targetPoint" />
            <Array as="points">
              <mxPoint x="740" y="912" />
            </Array>
          </mxGeometry>
        </mxCell>
        <mxCell id="tmRRFg4RgQcoLrq7VbQh-159" value="*" style="text;html=1;align=center;verticalAlign=middle;resizable=0;points=[];autosize=1;strokeColor=none;fillColor=none;" parent="1" vertex="1">
          <mxGeometry x="635" y="990" width="30" height="30" as="geometry" />
        </mxCell>
        <mxCell id="tmRRFg4RgQcoLrq7VbQh-160" value="1" style="text;html=1;align=center;verticalAlign=middle;resizable=0;points=[];autosize=1;strokeColor=none;fillColor=none;" parent="1" vertex="1">
          <mxGeometry x="845" y="885" width="30" height="30" as="geometry" />
        </mxCell>
        <mxCell id="tmRRFg4RgQcoLrq7VbQh-161" value="" style="endArrow=none;html=1;rounded=0;exitX=0.474;exitY=0.999;exitDx=0;exitDy=0;exitPerimeter=0;entryX=0;entryY=0.5;entryDx=0;entryDy=0;" parent="1" target="--HhwkiRQRE5FWoP_99E-1" edge="1">
          <mxGeometry width="50" height="50" relative="1" as="geometry">
            <mxPoint x="359.5" y="800" as="sourcePoint" />
            <mxPoint x="430" y="1130" as="targetPoint" />
            <Array as="points">
              <mxPoint x="360" y="902" />
            </Array>
          </mxGeometry>
        </mxCell>
        <mxCell id="tmRRFg4RgQcoLrq7VbQh-162" value="1" style="text;html=1;align=center;verticalAlign=middle;resizable=0;points=[];autosize=1;strokeColor=none;fillColor=none;" parent="1" vertex="1">
          <mxGeometry x="355" y="795" width="30" height="30" as="geometry" />
        </mxCell>
        <mxCell id="tmRRFg4RgQcoLrq7VbQh-163" value="*" style="text;html=1;align=center;verticalAlign=middle;resizable=0;points=[];autosize=1;strokeColor=none;fillColor=none;" parent="1" vertex="1">
          <mxGeometry x="495" y="1005" width="30" height="30" as="geometry" />
        </mxCell>
        <mxCell id="tmRRFg4RgQcoLrq7VbQh-164" value="SubscriberHistory" style="rounded=0;whiteSpace=wrap;html=1;" parent="1" vertex="1">
          <mxGeometry x="520" y="1083" width="120" height="34" as="geometry" />
        </mxCell>
        <mxCell id="tmRRFg4RgQcoLrq7VbQh-165" value="" style="endArrow=classic;html=1;rounded=0;exitX=0.5;exitY=1;exitDx=0;exitDy=0;entryX=0.5;entryY=0;entryDx=0;entryDy=0;" parent="1" source="tmRRFg4RgQcoLrq7VbQh-157" target="tmRRFg4RgQcoLrq7VbQh-164" edge="1">
          <mxGeometry width="50" height="50" relative="1" as="geometry">
            <mxPoint x="600" y="1050" as="sourcePoint" />
            <mxPoint x="650" y="1000" as="targetPoint" />
          </mxGeometry>
        </mxCell>
        <mxCell id="tmRRFg4RgQcoLrq7VbQh-166" value="1" style="text;html=1;align=center;verticalAlign=middle;resizable=0;points=[];autosize=1;strokeColor=none;fillColor=none;" parent="1" vertex="1">
          <mxGeometry x="575" y="1035" width="30" height="30" as="geometry" />
        </mxCell>
        <mxCell id="tmRRFg4RgQcoLrq7VbQh-167" value="1" style="text;html=1;align=center;verticalAlign=middle;resizable=0;points=[];autosize=1;strokeColor=none;fillColor=none;" parent="1" vertex="1">
          <mxGeometry x="575" y="1060" width="30" height="30" as="geometry" />
        </mxCell>
        <mxCell id="tmRRFg4RgQcoLrq7VbQh-168" value="Admin" style="html=1;" parent="1" vertex="1">
          <mxGeometry x="110" y="1000" width="120" height="40" as="geometry" />
        </mxCell>
        <mxCell id="tmRRFg4RgQcoLrq7VbQh-169" value="" style="endArrow=none;html=1;rounded=0;exitX=0.5;exitY=0;exitDx=0;exitDy=0;entryX=0;entryY=0.75;entryDx=0;entryDy=0;" parent="1" source="tmRRFg4RgQcoLrq7VbQh-168" target="tmRRFg4RgQcoLrq7VbQh-4" edge="1">
          <mxGeometry width="50" height="50" relative="1" as="geometry">
            <mxPoint x="810" y="670" as="sourcePoint" />
            <mxPoint x="560" y="230" as="targetPoint" />
            <Array as="points">
              <mxPoint x="170" y="200" />
            </Array>
          </mxGeometry>
        </mxCell>
        <mxCell id="tmRRFg4RgQcoLrq7VbQh-170" value="+" style="text;html=1;align=center;verticalAlign=middle;resizable=0;points=[];autosize=1;strokeColor=none;fillColor=none;" parent="1" vertex="1">
          <mxGeometry x="175" y="965" width="30" height="30" as="geometry" />
        </mxCell>
        <mxCell id="tmRRFg4RgQcoLrq7VbQh-171" value="1" style="text;html=1;align=center;verticalAlign=middle;resizable=0;points=[];autosize=1;strokeColor=none;fillColor=none;" parent="1" vertex="1">
          <mxGeometry x="750" y="200" width="30" height="30" as="geometry" />
        </mxCell>
        <mxCell id="tmRRFg4RgQcoLrq7VbQh-181" value="SubscriberState&lt;br&gt;" style="html=1;" parent="1" vertex="1">
          <mxGeometry x="690" y="1180" width="120" height="40" as="geometry" />
        </mxCell>
        <mxCell id="tmRRFg4RgQcoLrq7VbQh-182" value="" style="endArrow=none;html=1;rounded=0;exitX=1.013;exitY=0.824;exitDx=0;exitDy=0;exitPerimeter=0;entryX=-0.005;entryY=0.694;entryDx=0;entryDy=0;entryPerimeter=0;" parent="1" source="tmRRFg4RgQcoLrq7VbQh-157" target="tmRRFg4RgQcoLrq7VbQh-42" edge="1">
          <mxGeometry width="50" height="50" relative="1" as="geometry">
            <mxPoint x="900" y="1090" as="sourcePoint" />
            <mxPoint x="1120" y="880" as="targetPoint" />
            <Array as="points">
              <mxPoint x="1120" y="1036" />
              <mxPoint x="1120" y="879" />
            </Array>
          </mxGeometry>
        </mxCell>
        <mxCell id="tmRRFg4RgQcoLrq7VbQh-187" value="subscribe to" style="edgeLabel;html=1;align=center;verticalAlign=middle;resizable=0;points=[];" parent="tmRRFg4RgQcoLrq7VbQh-182" vertex="1" connectable="0">
          <mxGeometry x="0.7435" relative="1" as="geometry">
            <mxPoint as="offset" />
          </mxGeometry>
        </mxCell>
        <mxCell id="tmRRFg4RgQcoLrq7VbQh-188" value="subscribed by" style="edgeLabel;html=1;align=center;verticalAlign=middle;resizable=0;points=[];" parent="tmRRFg4RgQcoLrq7VbQh-182" vertex="1" connectable="0">
          <mxGeometry x="-0.9064" relative="1" as="geometry">
            <mxPoint as="offset" />
          </mxGeometry>
        </mxCell>
        <mxCell id="tmRRFg4RgQcoLrq7VbQh-184" value="" style="endArrow=none;dashed=1;html=1;rounded=0;exitX=0.426;exitY=-0.065;exitDx=0;exitDy=0;exitPerimeter=0;" parent="1" source="tmRRFg4RgQcoLrq7VbQh-181" edge="1">
          <mxGeometry width="50" height="50" relative="1" as="geometry">
            <mxPoint x="800" y="1070" as="sourcePoint" />
            <mxPoint x="740" y="1040" as="targetPoint" />
          </mxGeometry>
        </mxCell>
        <mxCell id="tmRRFg4RgQcoLrq7VbQh-186" value="*" style="text;html=1;align=center;verticalAlign=middle;resizable=0;points=[];autosize=1;strokeColor=none;fillColor=none;" parent="1" vertex="1">
          <mxGeometry x="1205" y="855" width="30" height="30" as="geometry" />
        </mxCell>
        <mxCell id="tmRRFg4RgQcoLrq7VbQh-189" value="Permission" style="html=1;fontSize=12;" parent="1" vertex="1">
          <mxGeometry x="1070" y="1180" width="110" height="40" as="geometry" />
        </mxCell>
        <mxCell id="tmRRFg4RgQcoLrq7VbQh-193" value="&lt;&lt;Enumiration&gt;&gt;&#xa;Action" style="swimlane;fontStyle=0;childLayout=stackLayout;horizontal=1;startSize=26;fillColor=none;horizontalStack=0;resizeParent=1;resizeParentMax=0;resizeLast=0;collapsible=1;marginBottom=0;fontSize=12;" parent="1" vertex="1">
          <mxGeometry x="1070" y="1290" width="110" height="104" as="geometry" />
        </mxCell>
        <mxCell id="tmRRFg4RgQcoLrq7VbQh-194" value="addProduct" style="text;strokeColor=none;fillColor=none;align=left;verticalAlign=top;spacingLeft=4;spacingRight=4;overflow=hidden;rotatable=0;points=[[0,0.5],[1,0.5]];portConstraint=eastwest;fontSize=12;" parent="tmRRFg4RgQcoLrq7VbQh-193" vertex="1">
          <mxGeometry y="26" width="110" height="26" as="geometry" />
        </mxCell>
        <mxCell id="tmRRFg4RgQcoLrq7VbQh-195" value="removeProduct" style="text;strokeColor=none;fillColor=none;align=left;verticalAlign=top;spacingLeft=4;spacingRight=4;overflow=hidden;rotatable=0;points=[[0,0.5],[1,0.5]];portConstraint=eastwest;fontSize=12;" parent="tmRRFg4RgQcoLrq7VbQh-193" vertex="1">
          <mxGeometry y="52" width="110" height="26" as="geometry" />
        </mxCell>
        <mxCell id="tmRRFg4RgQcoLrq7VbQh-196" value="addManager..." style="text;strokeColor=none;fillColor=none;align=left;verticalAlign=top;spacingLeft=4;spacingRight=4;overflow=hidden;rotatable=0;points=[[0,0.5],[1,0.5]];portConstraint=eastwest;fontSize=12;" parent="tmRRFg4RgQcoLrq7VbQh-193" vertex="1">
          <mxGeometry y="78" width="110" height="26" as="geometry" />
        </mxCell>
        <mxCell id="tmRRFg4RgQcoLrq7VbQh-198" value="1" style="endArrow=open;html=1;endSize=12;startArrow=diamondThin;startSize=14;startFill=0;edgeStyle=orthogonalEdgeStyle;align=left;verticalAlign=bottom;rounded=0;exitX=0.467;exitY=1.038;exitDx=0;exitDy=0;exitPerimeter=0;entryX=0.469;entryY=-0.03;entryDx=0;entryDy=0;entryPerimeter=0;" parent="1" source="tmRRFg4RgQcoLrq7VbQh-189" target="tmRRFg4RgQcoLrq7VbQh-193" edge="1">
          <mxGeometry x="-0.4361" y="4" relative="1" as="geometry">
            <mxPoint x="1065" y="1230" as="sourcePoint" />
            <mxPoint x="1225" y="1230" as="targetPoint" />
            <mxPoint as="offset" />
          </mxGeometry>
        </mxCell>
        <mxCell id="tmRRFg4RgQcoLrq7VbQh-200" value="StoreOwner" style="html=1;" parent="1" vertex="1">
          <mxGeometry x="530" y="1322" width="120" height="40" as="geometry" />
        </mxCell>
        <mxCell id="tmRRFg4RgQcoLrq7VbQh-201" value="StoreManager" style="html=1;" parent="1" vertex="1">
          <mxGeometry x="685" y="1322" width="120" height="40" as="geometry" />
        </mxCell>
        <mxCell id="tmRRFg4RgQcoLrq7VbQh-202" value="StoreCreator" style="html=1;" parent="1" vertex="1">
          <mxGeometry x="860" y="1322" width="120" height="40" as="geometry" />
        </mxCell>
        <mxCell id="tmRRFg4RgQcoLrq7VbQh-203" value="" style="endArrow=none;html=1;edgeStyle=orthogonalEdgeStyle;rounded=0;" parent="1" edge="1">
          <mxGeometry relative="1" as="geometry">
            <mxPoint x="580" y="1280" as="sourcePoint" />
            <mxPoint x="900" y="1280" as="targetPoint" />
          </mxGeometry>
        </mxCell>
        <mxCell id="tmRRFg4RgQcoLrq7VbQh-206" value="" style="line;strokeWidth=1;rotatable=0;dashed=0;labelPosition=right;align=left;verticalAlign=middle;spacingTop=0;spacingLeft=6;points=[];portConstraint=eastwest;" parent="1" vertex="1">
          <mxGeometry x="870" y="1275" width="5" height="10" as="geometry" />
        </mxCell>
        <mxCell id="tmRRFg4RgQcoLrq7VbQh-209" value="" style="endArrow=none;html=1;rounded=0;" parent="1" edge="1">
          <mxGeometry width="50" height="50" relative="1" as="geometry">
            <mxPoint x="580" y="1320" as="sourcePoint" />
            <mxPoint x="580" y="1280" as="targetPoint" />
          </mxGeometry>
        </mxCell>
        <mxCell id="tmRRFg4RgQcoLrq7VbQh-210" value="" style="endArrow=none;html=1;rounded=0;" parent="1" edge="1">
          <mxGeometry width="50" height="50" relative="1" as="geometry">
            <mxPoint x="740" y="1322" as="sourcePoint" />
            <mxPoint x="740" y="1280" as="targetPoint" />
          </mxGeometry>
        </mxCell>
        <mxCell id="tmRRFg4RgQcoLrq7VbQh-211" value="" style="endArrow=none;html=1;rounded=0;" parent="1" edge="1">
          <mxGeometry width="50" height="50" relative="1" as="geometry">
            <mxPoint x="900" y="1320" as="sourcePoint" />
            <mxPoint x="900" y="1280" as="targetPoint" />
          </mxGeometry>
        </mxCell>
        <mxCell id="tmRRFg4RgQcoLrq7VbQh-212" value="Extends" style="endArrow=block;endSize=16;endFill=0;html=1;rounded=0;" parent="1" edge="1">
          <mxGeometry y="20" width="160" relative="1" as="geometry">
            <mxPoint x="740" y="1280" as="sourcePoint" />
            <mxPoint x="740" y="1220" as="targetPoint" />
            <Array as="points" />
            <mxPoint as="offset" />
          </mxGeometry>
        </mxCell>
        <mxCell id="tmRRFg4RgQcoLrq7VbQh-213" value="" style="endArrow=none;html=1;rounded=0;exitX=0.814;exitY=-0.054;exitDx=0;exitDy=0;exitPerimeter=0;entryX=-0.012;entryY=0.898;entryDx=0;entryDy=0;entryPerimeter=0;" parent="1" source="tmRRFg4RgQcoLrq7VbQh-202" target="tmRRFg4RgQcoLrq7VbQh-42" edge="1">
          <mxGeometry width="50" height="50" relative="1" as="geometry">
            <mxPoint x="1010" y="1230" as="sourcePoint" />
            <mxPoint x="1160" y="900" as="targetPoint" />
            <Array as="points">
              <mxPoint x="960" y="1160" />
              <mxPoint x="1160" y="1160" />
              <mxPoint x="1160" y="900" />
            </Array>
          </mxGeometry>
        </mxCell>
        <mxCell id="tmRRFg4RgQcoLrq7VbQh-216" value="creator of" style="edgeLabel;html=1;align=center;verticalAlign=middle;resizable=0;points=[];" parent="tmRRFg4RgQcoLrq7VbQh-213" vertex="1" connectable="0">
          <mxGeometry x="0.7311" relative="1" as="geometry">
            <mxPoint as="offset" />
          </mxGeometry>
        </mxCell>
        <mxCell id="tmRRFg4RgQcoLrq7VbQh-217" value="created by" style="edgeLabel;html=1;align=center;verticalAlign=middle;resizable=0;points=[];" parent="tmRRFg4RgQcoLrq7VbQh-213" vertex="1" connectable="0">
          <mxGeometry x="-0.876" y="-2" relative="1" as="geometry">
            <mxPoint as="offset" />
          </mxGeometry>
        </mxCell>
        <mxCell id="tmRRFg4RgQcoLrq7VbQh-214" value="1" style="text;html=1;align=center;verticalAlign=middle;resizable=0;points=[];autosize=1;strokeColor=none;fillColor=none;" parent="1" vertex="1">
          <mxGeometry x="955" y="1295" width="30" height="30" as="geometry" />
        </mxCell>
        <mxCell id="tmRRFg4RgQcoLrq7VbQh-215" value="*" style="text;html=1;align=center;verticalAlign=middle;resizable=0;points=[];autosize=1;strokeColor=none;fillColor=none;" parent="1" vertex="1">
          <mxGeometry x="1205" y="875" width="30" height="30" as="geometry" />
        </mxCell>
        <mxCell id="tmRRFg4RgQcoLrq7VbQh-218" value="SubscriberNotifications" style="rounded=0;whiteSpace=wrap;html=1;" parent="1" vertex="1">
          <mxGeometry x="220" y="1085" width="155" height="34" as="geometry" />
        </mxCell>
        <mxCell id="tmRRFg4RgQcoLrq7VbQh-220" value="" style="endArrow=none;html=1;rounded=0;exitX=1;exitY=0.75;exitDx=0;exitDy=0;" parent="1" source="tmRRFg4RgQcoLrq7VbQh-218" edge="1">
          <mxGeometry width="50" height="50" relative="1" as="geometry">
            <mxPoint x="370" y="1110" as="sourcePoint" />
            <mxPoint x="520" y="1040" as="targetPoint" />
            <Array as="points">
              <mxPoint x="410" y="1110" />
              <mxPoint x="410" y="1040" />
            </Array>
          </mxGeometry>
        </mxCell>
        <mxCell id="tmRRFg4RgQcoLrq7VbQh-221" value="*" style="text;html=1;align=center;verticalAlign=middle;resizable=0;points=[];autosize=1;strokeColor=none;fillColor=none;" parent="1" vertex="1">
          <mxGeometry x="365" y="1085" width="30" height="30" as="geometry" />
        </mxCell>
        <mxCell id="tmRRFg4RgQcoLrq7VbQh-222" value="*" style="text;html=1;align=center;verticalAlign=middle;resizable=0;points=[];autosize=1;strokeColor=none;fillColor=none;" parent="1" vertex="1">
          <mxGeometry x="495" y="1035" width="30" height="30" as="geometry" />
        </mxCell>
        <mxCell id="tmRRFg4RgQcoLrq7VbQh-223" value="" style="endArrow=none;html=1;rounded=0;entryX=0;entryY=0.5;entryDx=0;entryDy=0;exitX=1;exitY=0.5;exitDx=0;exitDy=0;" parent="1" source="tmRRFg4RgQcoLrq7VbQh-181" target="tmRRFg4RgQcoLrq7VbQh-189" edge="1">
          <mxGeometry width="50" height="50" relative="1" as="geometry">
            <mxPoint x="860" y="1210" as="sourcePoint" />
            <mxPoint x="910" y="1160" as="targetPoint" />
          </mxGeometry>
        </mxCell>
        <mxCell id="tmRRFg4RgQcoLrq7VbQh-224" value="1" style="edgeLabel;html=1;align=center;verticalAlign=middle;resizable=0;points=[];" parent="tmRRFg4RgQcoLrq7VbQh-223" vertex="1" connectable="0">
          <mxGeometry x="-0.8723" y="8" relative="1" as="geometry">
            <mxPoint as="offset" />
          </mxGeometry>
        </mxCell>
        <mxCell id="tmRRFg4RgQcoLrq7VbQh-225" value="1" style="text;html=1;align=center;verticalAlign=middle;resizable=0;points=[];autosize=1;strokeColor=none;fillColor=none;" parent="1" vertex="1">
          <mxGeometry x="1035" y="1175" width="30" height="30" as="geometry" />
        </mxCell>
        <mxCell id="tmRRFg4RgQcoLrq7VbQh-226" value="" style="group" parent="1" vertex="1" connectable="0">
          <mxGeometry x="880" y="2100" width="210" height="283.3" as="geometry" />
        </mxCell>
        <mxCell id="tmRRFg4RgQcoLrq7VbQh-227" value="&lt;p style=&quot;margin:0px;margin-top:4px;text-align:center;&quot;&gt;&lt;i&gt;&amp;lt;&amp;lt;Interface&amp;gt;&amp;gt;&lt;/i&gt;&lt;br&gt;&lt;b&gt;DiscountFormat&lt;/b&gt;&lt;/p&gt;&lt;hr size=&quot;1&quot;&gt;&lt;p style=&quot;margin:0px;margin-left:4px;&quot;&gt;+ applyDiscount()&lt;br&gt;&lt;br&gt;&lt;/p&gt;" style="verticalAlign=top;align=left;overflow=fill;fontSize=12;fontFamily=Helvetica;html=1;" parent="tmRRFg4RgQcoLrq7VbQh-226" vertex="1">
          <mxGeometry x="516" y="-860" width="140" height="65.38410814375207" as="geometry" />
        </mxCell>
        <mxCell id="tmRRFg4RgQcoLrq7VbQh-228" value="ConditionalDiscount" style="html=1;" parent="tmRRFg4RgQcoLrq7VbQh-226" vertex="1">
          <mxGeometry x="446" y="-661.7" width="120" height="31.7" as="geometry" />
        </mxCell>
        <mxCell id="tmRRFg4RgQcoLrq7VbQh-230" value="VisibleDiscount" style="html=1;" parent="tmRRFg4RgQcoLrq7VbQh-226" vertex="1">
          <mxGeometry x="446" y="-721.3856907352457" width="120" height="32.598648203099245" as="geometry" />
        </mxCell>
        <mxCell id="tmRRFg4RgQcoLrq7VbQh-231" value="" style="endArrow=block;dashed=1;endFill=0;endSize=12;html=1;rounded=0;entryX=0.5;entryY=1;entryDx=0;entryDy=0;" parent="tmRRFg4RgQcoLrq7VbQh-226" target="tmRRFg4RgQcoLrq7VbQh-227" edge="1">
          <mxGeometry width="160" relative="1" as="geometry">
            <mxPoint x="586" y="-595.3811737553576" as="sourcePoint" />
            <mxPoint x="596" y="-791.533498186614" as="targetPoint" />
            <Array as="points">
              <mxPoint x="586" y="-679.4464556544675" />
              <mxPoint x="586" y="-782.1929113089351" />
            </Array>
          </mxGeometry>
        </mxCell>
        <mxCell id="tmRRFg4RgQcoLrq7VbQh-232" value="" style="html=1;verticalAlign=bottom;endArrow=none;dashed=1;endSize=8;rounded=0;endFill=0;" parent="tmRRFg4RgQcoLrq7VbQh-226" source="tmRRFg4RgQcoLrq7VbQh-230" edge="1">
          <mxGeometry relative="1" as="geometry">
            <mxPoint x="616" y="-702.8352851961754" as="sourcePoint" />
            <mxPoint x="586" y="-763.5117375535774" as="targetPoint" />
            <Array as="points">
              <mxPoint x="586" y="-707.4682162875041" />
            </Array>
          </mxGeometry>
        </mxCell>
        <mxCell id="tmRRFg4RgQcoLrq7VbQh-233" value="" style="html=1;verticalAlign=bottom;endArrow=none;dashed=1;endSize=8;rounded=0;endFill=0;exitX=1;exitY=0.5;exitDx=0;exitDy=0;" parent="tmRRFg4RgQcoLrq7VbQh-226" source="tmRRFg4RgQcoLrq7VbQh-228" edge="1">
          <mxGeometry relative="1" as="geometry">
            <mxPoint x="616" y="-646.7544015825915" as="sourcePoint" />
            <mxPoint x="586" y="-782.1929113089351" as="targetPoint" />
            <Array as="points">
              <mxPoint x="586" y="-646.7544015825915" />
            </Array>
          </mxGeometry>
        </mxCell>
        <mxCell id="tmRRFg4RgQcoLrq7VbQh-234" value="" style="html=1;verticalAlign=bottom;endArrow=none;dashed=1;endSize=8;rounded=0;endFill=0;exitX=1;exitY=0.25;exitDx=0;exitDy=0;" parent="tmRRFg4RgQcoLrq7VbQh-226" source="tmRRFg4RgQcoLrq7VbQh-229" edge="1">
          <mxGeometry relative="1" as="geometry">
            <mxPoint x="566" y="-595.1983803165185" as="sourcePoint" />
            <mxPoint x="586" y="-782.1929113089351" as="targetPoint" />
            <Array as="points">
              <mxPoint x="586" y="-595.3811737553576" />
              <mxPoint x="586" y="-782.1929113089351" />
            </Array>
          </mxGeometry>
        </mxCell>
        <mxCell id="tmRRFg4RgQcoLrq7VbQh-236" style="edgeStyle=orthogonalEdgeStyle;rounded=0;orthogonalLoop=1;jettySize=auto;html=1;endArrow=none;endFill=0;" parent="1" source="tmRRFg4RgQcoLrq7VbQh-237" target="tmRRFg4RgQcoLrq7VbQh-239" edge="1">
          <mxGeometry relative="1" as="geometry">
            <Array as="points">
              <mxPoint x="1621" y="1190" />
              <mxPoint x="1766" y="1190" />
            </Array>
          </mxGeometry>
        </mxCell>
        <mxCell id="tmRRFg4RgQcoLrq7VbQh-237" value="Discount Policy" style="html=1;" parent="1" vertex="1">
          <mxGeometry x="1566" y="1130" width="110" height="40" as="geometry" />
        </mxCell>
        <mxCell id="tmRRFg4RgQcoLrq7VbQh-238" value="" style="endArrow=none;html=1;endSize=12;startArrow=none;startSize=14;startFill=0;edgeStyle=orthogonalEdgeStyle;align=left;verticalAlign=bottom;rounded=0;entryX=0.5;entryY=0;entryDx=0;entryDy=0;endFill=0;exitX=0.5;exitY=1;exitDx=0;exitDy=0;" parent="1" source="tmRRFg4RgQcoLrq7VbQh-237" target="tmRRFg4RgQcoLrq7VbQh-227" edge="1">
          <mxGeometry x="-0.1556" y="60" relative="1" as="geometry">
            <mxPoint x="1416" y="1204" as="sourcePoint" />
            <mxPoint x="1452.96" y="1160.71" as="targetPoint" />
            <mxPoint as="offset" />
            <Array as="points">
              <mxPoint x="1621" y="1190" />
              <mxPoint x="1486" y="1190" />
            </Array>
          </mxGeometry>
        </mxCell>
        <mxCell id="tmRRFg4RgQcoLrq7VbQh-246" value="*" style="edgeLabel;html=1;align=center;verticalAlign=middle;resizable=0;points=[];" parent="tmRRFg4RgQcoLrq7VbQh-238" vertex="1" connectable="0">
          <mxGeometry x="0.7708" y="7" relative="1" as="geometry">
            <mxPoint as="offset" />
          </mxGeometry>
        </mxCell>
        <mxCell id="tmRRFg4RgQcoLrq7VbQh-239" value="&amp;lt;&amp;lt;Abstract Class&amp;gt;&amp;gt;&lt;br&gt;Discount Constraints" style="rounded=0;whiteSpace=wrap;html=1;" parent="1" vertex="1">
          <mxGeometry x="1706" y="1242.0100000000002" width="120" height="44.3" as="geometry" />
        </mxCell>
        <mxCell id="tmRRFg4RgQcoLrq7VbQh-244" value="+" style="text;html=1;align=center;verticalAlign=middle;resizable=0;points=[];autosize=1;strokeColor=none;fillColor=none;" parent="1" vertex="1">
          <mxGeometry x="1761" y="1208" width="30" height="30" as="geometry" />
        </mxCell>
        <mxCell id="tmRRFg4RgQcoLrq7VbQh-245" value="1" style="text;html=1;align=center;verticalAlign=middle;resizable=0;points=[];autosize=1;strokeColor=none;fillColor=none;" parent="1" vertex="1">
          <mxGeometry x="1581" y="1195" width="30" height="30" as="geometry" />
        </mxCell>
        <mxCell id="tmRRFg4RgQcoLrq7VbQh-229" value="HiddenDiscount" style="html=1;" parent="1" vertex="1">
          <mxGeometry x="1330" y="1496" width="120" height="29.3" as="geometry" />
        </mxCell>
        <mxCell id="tmRRFg4RgQcoLrq7VbQh-247" value="" style="endArrow=none;html=1;rounded=0;exitX=0;exitY=0.25;exitDx=0;exitDy=0;entryX=0.999;entryY=0.441;entryDx=0;entryDy=0;entryPerimeter=0;" parent="1" source="tmRRFg4RgQcoLrq7VbQh-237" target="tmRRFg4RgQcoLrq7VbQh-42" edge="1">
          <mxGeometry width="50" height="50" relative="1" as="geometry">
            <mxPoint x="1480" y="1130" as="sourcePoint" />
            <mxPoint x="1370" y="880" as="targetPoint" />
            <Array as="points">
              <mxPoint x="1400" y="1140" />
              <mxPoint x="1400" y="854" />
            </Array>
          </mxGeometry>
        </mxCell>
        <mxCell id="tmRRFg4RgQcoLrq7VbQh-248" value="*" style="text;html=1;align=center;verticalAlign=middle;resizable=0;points=[];autosize=1;strokeColor=none;fillColor=none;" parent="1" vertex="1">
          <mxGeometry x="1535" y="1115" width="30" height="30" as="geometry" />
        </mxCell>
        <mxCell id="tmRRFg4RgQcoLrq7VbQh-249" value="1" style="text;html=1;align=center;verticalAlign=middle;resizable=0;points=[];autosize=1;strokeColor=none;fillColor=none;" parent="1" vertex="1">
          <mxGeometry x="1361" y="830" width="30" height="30" as="geometry" />
        </mxCell>
        <mxCell id="tmRRFg4RgQcoLrq7VbQh-251" value="PurchasePolicy" style="swimlane;fontStyle=1;align=center;verticalAlign=top;childLayout=stackLayout;horizontal=1;startSize=26;horizontalStack=0;resizeParent=1;resizeParentMax=0;resizeLast=0;collapsible=1;marginBottom=0;" parent="1" vertex="1">
          <mxGeometry x="1721.5" y="855" width="160" height="34" as="geometry" />
        </mxCell>
        <mxCell id="tmRRFg4RgQcoLrq7VbQh-252" value="" style="line;strokeWidth=1;fillColor=none;align=left;verticalAlign=middle;spacingTop=-1;spacingLeft=3;spacingRight=3;rotatable=0;labelPosition=right;points=[];portConstraint=eastwest;strokeColor=inherit;" parent="tmRRFg4RgQcoLrq7VbQh-251" vertex="1">
          <mxGeometry y="26" width="160" height="8" as="geometry" />
        </mxCell>
        <mxCell id="tmRRFg4RgQcoLrq7VbQh-256" value="&amp;lt;&amp;lt;Abstract Class&amp;gt;&amp;gt;&lt;br style=&quot;border-color: var(--border-color); padding: 0px; margin: 0px; font-weight: 700;&quot;&gt;&lt;span style=&quot;font-weight: 700;&quot;&gt;ProductConstraints&lt;/span&gt;" style="rounded=0;whiteSpace=wrap;html=1;" parent="1" vertex="1">
          <mxGeometry x="1741.5" y="917.31" width="120" height="47.01" as="geometry" />
        </mxCell>
        <mxCell id="tmRRFg4RgQcoLrq7VbQh-257" value="" style="endArrow=none;html=1;rounded=0;exitX=0.999;exitY=0.706;exitDx=0;exitDy=0;exitPerimeter=0;" parent="1" source="tmRRFg4RgQcoLrq7VbQh-42" edge="1">
          <mxGeometry width="50" height="50" relative="1" as="geometry">
            <mxPoint x="1670" y="1060" as="sourcePoint" />
            <mxPoint x="1720" y="880" as="targetPoint" />
          </mxGeometry>
        </mxCell>
        <mxCell id="tmRRFg4RgQcoLrq7VbQh-260" value="*" style="text;html=1;align=center;verticalAlign=middle;resizable=0;points=[];autosize=1;strokeColor=none;fillColor=none;" parent="1" vertex="1">
          <mxGeometry x="1695" y="855" width="30" height="30" as="geometry" />
        </mxCell>
        <mxCell id="tmRRFg4RgQcoLrq7VbQh-261" value="1" style="text;html=1;align=center;verticalAlign=middle;resizable=0;points=[];autosize=1;strokeColor=none;fillColor=none;" parent="1" vertex="1">
          <mxGeometry x="1361" y="859" width="30" height="30" as="geometry" />
        </mxCell>
        <mxCell id="tmRRFg4RgQcoLrq7VbQh-262" value="" style="endArrow=none;html=1;rounded=0;exitX=0.5;exitY=0;exitDx=0;exitDy=0;" parent="1" source="tmRRFg4RgQcoLrq7VbQh-256" target="tmRRFg4RgQcoLrq7VbQh-252" edge="1">
          <mxGeometry width="50" height="50" relative="1" as="geometry">
            <mxPoint x="1690" y="1020" as="sourcePoint" />
            <mxPoint x="1740" y="970" as="targetPoint" />
          </mxGeometry>
        </mxCell>
        <mxCell id="tmRRFg4RgQcoLrq7VbQh-266" value="" style="endArrow=none;html=1;rounded=0;exitX=1;exitY=0.5;exitDx=0;exitDy=0;entryX=0;entryY=0.5;entryDx=0;entryDy=0;" parent="1" source="tmRRFg4RgQcoLrq7VbQh-251" edge="1">
          <mxGeometry width="50" height="50" relative="1" as="geometry">
            <mxPoint x="1620" y="1030" as="sourcePoint" />
            <mxPoint x="2160" y="872" as="targetPoint" />
          </mxGeometry>
        </mxCell>
        <mxCell id="tmRRFg4RgQcoLrq7VbQh-267" value="*" style="text;html=1;align=center;verticalAlign=middle;resizable=0;points=[];autosize=1;strokeColor=none;fillColor=none;" parent="1" vertex="1">
          <mxGeometry x="2140" y="850" width="30" height="30" as="geometry" />
        </mxCell>
        <mxCell id="tmRRFg4RgQcoLrq7VbQh-268" value="1" style="text;html=1;align=center;verticalAlign=middle;resizable=0;points=[];autosize=1;strokeColor=none;fillColor=none;" parent="1" vertex="1">
          <mxGeometry x="1875" y="845" width="30" height="30" as="geometry" />
        </mxCell>
        <mxCell id="tmRRFg4RgQcoLrq7VbQh-271" value="StoreData" style="rounded=0;whiteSpace=wrap;html=1;" parent="1" vertex="1">
          <mxGeometry x="1241.5" y="1153.3" width="120" height="41.7" as="geometry" />
        </mxCell>
        <mxCell id="tmRRFg4RgQcoLrq7VbQh-272" value="" style="endArrow=none;html=1;rounded=0;entryX=1.004;entryY=0.85;entryDx=0;entryDy=0;entryPerimeter=0;exitX=1.003;exitY=0.407;exitDx=0;exitDy=0;exitPerimeter=0;" parent="1" source="tmRRFg4RgQcoLrq7VbQh-271" target="tmRRFg4RgQcoLrq7VbQh-42" edge="1">
          <mxGeometry width="50" height="50" relative="1" as="geometry">
            <mxPoint x="1360" y="1170" as="sourcePoint" />
            <mxPoint x="1540" y="960" as="targetPoint" />
            <Array as="points">
              <mxPoint x="1380" y="1170" />
              <mxPoint x="1380" y="895" />
            </Array>
          </mxGeometry>
        </mxCell>
        <mxCell id="tmRRFg4RgQcoLrq7VbQh-273" value="1" style="edgeLabel;html=1;align=center;verticalAlign=middle;resizable=0;points=[];" parent="tmRRFg4RgQcoLrq7VbQh-272" vertex="1" connectable="0">
          <mxGeometry x="-0.8254" y="6" relative="1" as="geometry">
            <mxPoint as="offset" />
          </mxGeometry>
        </mxCell>
        <mxCell id="tmRRFg4RgQcoLrq7VbQh-274" value="1" style="text;html=1;align=center;verticalAlign=middle;resizable=0;points=[];autosize=1;strokeColor=none;fillColor=none;" parent="1" vertex="1">
          <mxGeometry x="1361" y="887.31" width="30" height="30" as="geometry" />
        </mxCell>
        <mxCell id="tmRRFg4RgQcoLrq7VbQh-277" value="" style="endArrow=none;html=1;rounded=0;exitX=0.5;exitY=0;exitDx=0;exitDy=0;" parent="1" source="tmRRFg4RgQcoLrq7VbQh-278" edge="1">
          <mxGeometry width="50" height="50" relative="1" as="geometry">
            <mxPoint x="1300.86" y="1255" as="sourcePoint" />
            <mxPoint x="1300.86" y="1195" as="targetPoint" />
          </mxGeometry>
        </mxCell>
        <mxCell id="tmRRFg4RgQcoLrq7VbQh-278" value="&lt;&lt;Enumiration&gt;&gt;&#xa;Roles" style="swimlane;fontStyle=0;childLayout=stackLayout;horizontal=1;startSize=26;fillColor=none;horizontalStack=0;resizeParent=1;resizeParentMax=0;resizeLast=0;collapsible=1;marginBottom=0;fontSize=12;" parent="1" vertex="1">
          <mxGeometry x="1246.5" y="1258" width="110" height="104" as="geometry" />
        </mxCell>
        <mxCell id="tmRRFg4RgQcoLrq7VbQh-279" value="creator" style="text;strokeColor=none;fillColor=none;align=left;verticalAlign=top;spacingLeft=4;spacingRight=4;overflow=hidden;rotatable=0;points=[[0,0.5],[1,0.5]];portConstraint=eastwest;fontSize=12;" parent="tmRRFg4RgQcoLrq7VbQh-278" vertex="1">
          <mxGeometry y="26" width="110" height="26" as="geometry" />
        </mxCell>
        <mxCell id="tmRRFg4RgQcoLrq7VbQh-280" value="manager" style="text;strokeColor=none;fillColor=none;align=left;verticalAlign=top;spacingLeft=4;spacingRight=4;overflow=hidden;rotatable=0;points=[[0,0.5],[1,0.5]];portConstraint=eastwest;fontSize=12;" parent="tmRRFg4RgQcoLrq7VbQh-278" vertex="1">
          <mxGeometry y="52" width="110" height="26" as="geometry" />
        </mxCell>
        <mxCell id="tmRRFg4RgQcoLrq7VbQh-281" value="owner" style="text;strokeColor=none;fillColor=none;align=left;verticalAlign=top;spacingLeft=4;spacingRight=4;overflow=hidden;rotatable=0;points=[[0,0.5],[1,0.5]];portConstraint=eastwest;fontSize=12;" parent="tmRRFg4RgQcoLrq7VbQh-278" vertex="1">
          <mxGeometry y="78" width="110" height="26" as="geometry" />
        </mxCell>
        <mxCell id="tmRRFg4RgQcoLrq7VbQh-282" value="1" style="text;html=1;align=center;verticalAlign=middle;resizable=0;points=[];autosize=1;strokeColor=none;fillColor=none;" parent="1" vertex="1">
          <mxGeometry x="1295" y="1190" width="30" height="30" as="geometry" />
        </mxCell>
        <mxCell id="tmRRFg4RgQcoLrq7VbQh-283" value="1" style="text;html=1;align=center;verticalAlign=middle;resizable=0;points=[];autosize=1;strokeColor=none;fillColor=none;" parent="1" vertex="1">
          <mxGeometry x="1295" y="1235" width="30" height="30" as="geometry" />
        </mxCell>
        <mxCell id="--HhwkiRQRE5FWoP_99E-1" value="User" style="html=1;" parent="1" vertex="1">
          <mxGeometry x="455" y="882.31" width="120" height="40" as="geometry" />
        </mxCell>
        <mxCell id="--HhwkiRQRE5FWoP_99E-3" value="Extends" style="endArrow=block;endSize=16;endFill=0;html=1;rounded=0;entryX=0.787;entryY=1.006;entryDx=0;entryDy=0;entryPerimeter=0;" parent="1" target="--HhwkiRQRE5FWoP_99E-1" edge="1">
          <mxGeometry x="0.031" y="-10" width="160" relative="1" as="geometry">
            <mxPoint x="550" y="1000" as="sourcePoint" />
            <mxPoint x="990" y="940" as="targetPoint" />
            <mxPoint as="offset" />
          </mxGeometry>
        </mxCell>
        <mxCell id="--HhwkiRQRE5FWoP_99E-13" value="" style="endArrow=none;html=1;rounded=0;dashed=1;dashPattern=1 2;exitX=1;exitY=0.75;exitDx=0;exitDy=0;entryX=0;entryY=0.5;entryDx=0;entryDy=0;" parent="1" source="tmRRFg4RgQcoLrq7VbQh-150" target="tmRRFg4RgQcoLrq7VbQh-93" edge="1">
          <mxGeometry relative="1" as="geometry">
            <mxPoint x="1080" y="1130" as="sourcePoint" />
            <mxPoint x="1240" y="1130" as="targetPoint" />
          </mxGeometry>
        </mxCell>
        <mxCell id="--HhwkiRQRE5FWoP_99E-14" value="*" style="resizable=0;html=1;whiteSpace=wrap;align=left;verticalAlign=bottom;" parent="--HhwkiRQRE5FWoP_99E-13" connectable="0" vertex="1">
          <mxGeometry x="-1" relative="1" as="geometry" />
        </mxCell>
        <mxCell id="--HhwkiRQRE5FWoP_99E-15" value="*" style="resizable=0;html=1;whiteSpace=wrap;align=right;verticalAlign=bottom;" parent="--HhwkiRQRE5FWoP_99E-13" connectable="0" vertex="1">
          <mxGeometry x="1" relative="1" as="geometry" />
        </mxCell>
        <mxCell id="--HhwkiRQRE5FWoP_99E-16" value="" style="endArrow=none;html=1;edgeStyle=orthogonalEdgeStyle;rounded=0;" parent="1" edge="1">
          <mxGeometry relative="1" as="geometry">
            <mxPoint x="2000" y="998" as="sourcePoint" />
            <mxPoint x="2250" y="998" as="targetPoint" />
            <Array as="points">
              <mxPoint x="2650" y="998" />
            </Array>
          </mxGeometry>
        </mxCell>
        <mxCell id="--HhwkiRQRE5FWoP_99E-21" value="Extends" style="endArrow=block;endSize=16;endFill=0;html=1;rounded=0;entryX=0.45;entryY=0.787;entryDx=0;entryDy=0;entryPerimeter=0;" parent="1" target="--HhwkiRQRE5FWoP_99E-26" edge="1">
          <mxGeometry width="160" relative="1" as="geometry">
            <mxPoint x="2230" y="1000" as="sourcePoint" />
            <mxPoint x="2229.12" y="891.28" as="targetPoint" />
          </mxGeometry>
        </mxCell>
        <mxCell id="--HhwkiRQRE5FWoP_99E-28" style="edgeStyle=orthogonalEdgeStyle;rounded=0;orthogonalLoop=1;jettySize=auto;html=1;" parent="1" source="--HhwkiRQRE5FWoP_99E-22" edge="1">
          <mxGeometry relative="1" as="geometry">
            <mxPoint x="2035" y="1000.0000000000002" as="targetPoint" />
          </mxGeometry>
        </mxCell>
        <mxCell id="--HhwkiRQRE5FWoP_99E-22" value="ImmediatePay" style="html=1;whiteSpace=wrap;" parent="1" vertex="1">
          <mxGeometry x="1980" y="1080" width="110" height="30" as="geometry" />
        </mxCell>
        <mxCell id="--HhwkiRQRE5FWoP_99E-23" value="&lt;span style=&quot;text-wrap: nowrap;&quot;&gt;PurchaseType&lt;/span&gt;" style="swimlane;fontStyle=1;align=center;verticalAlign=top;childLayout=stackLayout;horizontal=1;startSize=26;horizontalStack=0;resizeParent=1;resizeParentMax=0;resizeLast=0;collapsible=1;marginBottom=0;whiteSpace=wrap;html=1;" parent="1" vertex="1">
          <mxGeometry x="2160" y="810" width="160" height="60" as="geometry" />
        </mxCell>
        <mxCell id="--HhwkiRQRE5FWoP_99E-25" value="" style="line;strokeWidth=1;fillColor=none;align=left;verticalAlign=middle;spacingTop=-1;spacingLeft=3;spacingRight=3;rotatable=0;labelPosition=right;points=[];portConstraint=eastwest;strokeColor=inherit;" parent="--HhwkiRQRE5FWoP_99E-23" vertex="1">
          <mxGeometry y="26" width="160" height="8" as="geometry" />
        </mxCell>
        <mxCell id="--HhwkiRQRE5FWoP_99E-26" value="+p&lt;span style=&quot;font-weight: 700; text-align: center; text-wrap: nowrap;&quot;&gt;urchase():void&lt;/span&gt;" style="text;strokeColor=none;fillColor=none;align=left;verticalAlign=top;spacingLeft=4;spacingRight=4;overflow=hidden;rotatable=0;points=[[0,0.5],[1,0.5]];portConstraint=eastwest;whiteSpace=wrap;html=1;" parent="--HhwkiRQRE5FWoP_99E-23" vertex="1">
          <mxGeometry y="34" width="160" height="26" as="geometry" />
        </mxCell>
        <mxCell id="--HhwkiRQRE5FWoP_99E-30" style="edgeStyle=orthogonalEdgeStyle;rounded=0;orthogonalLoop=1;jettySize=auto;html=1;" parent="1" source="--HhwkiRQRE5FWoP_99E-29" edge="1">
          <mxGeometry relative="1" as="geometry">
            <mxPoint x="2175" y="1000" as="targetPoint" />
          </mxGeometry>
        </mxCell>
        <mxCell id="--HhwkiRQRE5FWoP_99E-29" value="PayByBid" style="html=1;whiteSpace=wrap;" parent="1" vertex="1">
          <mxGeometry x="2120" y="1080" width="110" height="30" as="geometry" />
        </mxCell>
        <mxCell id="--HhwkiRQRE5FWoP_99E-32" style="edgeStyle=orthogonalEdgeStyle;rounded=0;orthogonalLoop=1;jettySize=auto;html=1;" parent="1" source="--HhwkiRQRE5FWoP_99E-31" edge="1">
          <mxGeometry relative="1" as="geometry">
            <mxPoint x="2335" y="1000.0000000000002" as="targetPoint" />
          </mxGeometry>
        </mxCell>
        <mxCell id="--HhwkiRQRE5FWoP_99E-31" value="PublicPay" style="html=1;whiteSpace=wrap;" parent="1" vertex="1">
          <mxGeometry x="2280" y="1080" width="110" height="30" as="geometry" />
        </mxCell>
        <mxCell id="--HhwkiRQRE5FWoP_99E-34" style="edgeStyle=orthogonalEdgeStyle;rounded=0;orthogonalLoop=1;jettySize=auto;html=1;" parent="1" source="--HhwkiRQRE5FWoP_99E-33" edge="1">
          <mxGeometry relative="1" as="geometry">
            <mxPoint x="2480" y="1000" as="targetPoint" />
            <Array as="points">
              <mxPoint x="2480" y="1070" />
              <mxPoint x="2480" y="1070" />
            </Array>
          </mxGeometry>
        </mxCell>
        <mxCell id="--HhwkiRQRE5FWoP_99E-33" value="RandomPay" style="html=1;whiteSpace=wrap;" parent="1" vertex="1">
          <mxGeometry x="2430" y="1080" width="110" height="30" as="geometry" />
        </mxCell>
        <mxCell id="--HhwkiRQRE5FWoP_99E-35" value="Extends" style="endArrow=block;endSize=16;endFill=0;html=1;rounded=0;exitX=0.25;exitY=0;exitDx=0;exitDy=0;" parent="1" edge="1" source="--HhwkiRQRE5FWoP_99E-36">
          <mxGeometry width="160" relative="1" as="geometry">
            <mxPoint x="660" y="750" as="sourcePoint" />
            <mxPoint x="663" y="640" as="targetPoint" />
          </mxGeometry>
        </mxCell>
        <mxCell id="--HhwkiRQRE5FWoP_99E-36" value="DefaultPay" style="html=1;whiteSpace=wrap;" parent="1" vertex="1">
          <mxGeometry x="635" y="745" width="110" height="50" as="geometry" />
        </mxCell>
        <mxCell id="--HhwkiRQRE5FWoP_99E-37" value="Extends" style="endArrow=block;endSize=16;endFill=0;html=1;rounded=0;entryX=0.5;entryY=1;entryDx=0;entryDy=0;" parent="1" source="--HhwkiRQRE5FWoP_99E-38" edge="1">
          <mxGeometry width="160" relative="1" as="geometry">
            <mxPoint x="1005" y="745" as="sourcePoint" />
            <mxPoint x="1010" y="635" as="targetPoint" />
          </mxGeometry>
        </mxCell>
        <mxCell id="--HhwkiRQRE5FWoP_99E-39" value="" style="endArrow=block;endSize=16;endFill=0;html=1;rounded=0;entryX=0.5;entryY=1;entryDx=0;entryDy=0;" parent="1" target="--HhwkiRQRE5FWoP_99E-38" edge="1">
          <mxGeometry width="160" relative="1" as="geometry">
            <mxPoint x="1005" y="745" as="sourcePoint" />
            <mxPoint x="1010" y="635" as="targetPoint" />
          </mxGeometry>
        </mxCell>
        <mxCell id="--HhwkiRQRE5FWoP_99E-38" value="DefaultSupplier" style="html=1;whiteSpace=wrap;" parent="1" vertex="1">
          <mxGeometry x="955" y="740" width="110" height="50" as="geometry" />
        </mxCell>
        <mxCell id="ohm9jh5AtfMmBiePwG9k-4" value="Utilites" style="text;html=1;align=center;verticalAlign=middle;resizable=0;points=[];autosize=1;strokeColor=none;fillColor=none;" vertex="1" parent="1">
          <mxGeometry x="1501" y="170" width="60" height="30" as="geometry" />
        </mxCell>
        <mxCell id="ohm9jh5AtfMmBiePwG9k-5" value="אילוץ שנאכוף בפרויקט:&lt;br&gt;אין מינוי מעגלי של משתמש" style="text;html=1;align=center;verticalAlign=middle;resizable=0;points=[];autosize=1;strokeColor=none;fillColor=none;" vertex="1" parent="1">
          <mxGeometry x="160" y="130" width="150" height="40" as="geometry" />
        </mxCell>
      </root>
    </mxGraphModel>
  </diagram>
  <diagram id="xxrp4QsGVzr8Zfr-XSMe" name="Page-2">
    <mxGraphModel dx="2052" dy="850" grid="1" gridSize="10" guides="1" tooltips="1" connect="1" arrows="1" fold="1" page="1" pageScale="1" pageWidth="850" pageHeight="1100" math="0" shadow="0">
      <root>
        <mxCell id="0" />
        <mxCell id="1" parent="0" />
        <mxCell id="z1rswrZgB9SCLob50gjK-1" value="Domain" style="verticalAlign=top;align=left;spacingTop=8;spacingLeft=2;spacingRight=12;shape=cube;size=10;direction=south;fontStyle=4;html=1;whiteSpace=wrap;" vertex="1" parent="1">
          <mxGeometry x="5" y="180" width="1315" height="180" as="geometry" />
        </mxCell>
        <mxCell id="z1rswrZgB9SCLob50gjK-2" value="User" style="html=1;whiteSpace=wrap;" vertex="1" parent="1">
          <mxGeometry x="50" y="240" width="130" height="60" as="geometry" />
        </mxCell>
        <mxCell id="m9M5vJSsLMZgpB0wTJ_l-15" style="edgeStyle=orthogonalEdgeStyle;rounded=0;orthogonalLoop=1;jettySize=auto;html=1;entryX=1;entryY=0.5;entryDx=0;entryDy=0;" edge="1" parent="1" source="z1rswrZgB9SCLob50gjK-3" target="z1rswrZgB9SCLob50gjK-2">
          <mxGeometry relative="1" as="geometry" />
        </mxCell>
        <mxCell id="z1rswrZgB9SCLob50gjK-3" value="Store&lt;span style=&quot;color: rgba(0, 0, 0, 0); font-family: monospace; font-size: 0px; text-align: start; text-wrap: nowrap;&quot;&gt;%3CmxGraphModel%3E%3Croot%3E%3CmxCell%20id%3D%220%22%2F%3E%3CmxCell%20id%3D%221%22%20parent%3D%220%22%2F%3E%3CmxCell%20id%3D%222%22%20value%3D%22User%22%20style%3D%22html%3D1%3BwhiteSpace%3Dwrap%3B%22%20vertex%3D%221%22%20parent%3D%221%22%3E%3CmxGeometry%20x%3D%2250%22%20y%3D%22240%22%20width%3D%22130%22%20height%3D%2260%22%20as%3D%22geometry%22%2F%3E%3C%2FmxCell%3E%3C%2Froot%3E%3C%2FmxGraphModel%3E&lt;/span&gt;" style="html=1;whiteSpace=wrap;" vertex="1" parent="1">
          <mxGeometry x="230" y="240" width="130" height="60" as="geometry" />
        </mxCell>
        <mxCell id="z1rswrZgB9SCLob50gjK-4" value="Message" style="html=1;whiteSpace=wrap;" vertex="1" parent="1">
          <mxGeometry x="390" y="240" width="130" height="60" as="geometry" />
        </mxCell>
        <mxCell id="tpne8yXfs1ErKmTpTS3r-1" value="Logger&lt;span style=&quot;color: rgba(0, 0, 0, 0); font-family: monospace; font-size: 0px; text-align: start; text-wrap: nowrap;&quot;&gt;%3CmxGraphModel%3E%3Croot%3E%3CmxCell%20id%3D%220%22%2F%3E%3CmxCell%20id%3D%221%22%20parent%3D%220%22%2F%3E%3CmxCell%20id%3D%222%22%20value%3D%22Security%22%20style%3D%22html%3D1%3BwhiteSpace%3Dwrap%3B%22%20vertex%3D%221%22%20parent%3D%221%22%3E%3CmxGeometry%20x%3D%22490%22%20y%3D%22220%22%20width%3D%22110%22%20height%3D%2250%22%20as%3D%22geometry%22%2F%3E%3C%2FmxCell%3E%3C%2Froot%3E%3C%2FmxGraphModel%3E&lt;/span&gt;&lt;span style=&quot;color: rgba(0, 0, 0, 0); font-family: monospace; font-size: 0px; text-align: start; text-wrap: nowrap;&quot;&gt;%3CmxGraphModel%3E%3Croot%3E%3CmxCell%20id%3D%220%22%2F%3E%3CmxCell%20id%3D%221%22%20parent%3D%220%22%2F%3E%3CmxCell%20id%3D%222%22%20value%3D%22Security%22%20style%3D%22html%3D1%3BwhiteSpace%3Dwrap%3B%22%20vertex%3D%221%22%20parent%3D%221%22%3E%3CmxGeometry%20x%3D%22490%22%20y%3D%22220%22%20width%3D%22110%22%20height%3D%2250%22%20as%3D%22geometry%22%2F%3E%3C%2FmxCell%3E%3C%2Froot%3E%3C%2FmxGraphModel%3E&lt;/span&gt;" style="html=1;whiteSpace=wrap;" vertex="1" parent="1">
          <mxGeometry x="550" y="240" width="130" height="60" as="geometry" />
        </mxCell>
        <mxCell id="L0iyq_Gjb_TStywYeha1-1" value="Security" style="html=1;whiteSpace=wrap;" vertex="1" parent="1">
          <mxGeometry x="710" y="240" width="130" height="60" as="geometry" />
        </mxCell>
        <mxCell id="L0iyq_Gjb_TStywYeha1-2" value="Suppliers" style="html=1;whiteSpace=wrap;" vertex="1" parent="1">
          <mxGeometry x="870" y="240" width="130" height="60" as="geometry" />
        </mxCell>
        <mxCell id="vSsCyjcF-yVz5yhP-Ly6-1" value="Payemnt" style="html=1;whiteSpace=wrap;" vertex="1" parent="1">
          <mxGeometry x="1020" y="240" width="130" height="60" as="geometry" />
        </mxCell>
        <mxCell id="m9M5vJSsLMZgpB0wTJ_l-1" value="Admin" style="html=1;whiteSpace=wrap;" vertex="1" parent="1">
          <mxGeometry x="1170" y="240" width="130" height="60" as="geometry" />
        </mxCell>
        <mxCell id="m9M5vJSsLMZgpB0wTJ_l-2" value="Service" style="verticalAlign=top;align=left;spacingTop=8;spacingLeft=2;spacingRight=12;shape=cube;size=10;direction=south;fontStyle=4;html=1;whiteSpace=wrap;" vertex="1" parent="1">
          <mxGeometry x="5" y="430" width="1315" height="180" as="geometry" />
        </mxCell>
        <mxCell id="m9M5vJSsLMZgpB0wTJ_l-3" value="UserService" style="html=1;whiteSpace=wrap;" vertex="1" parent="1">
          <mxGeometry x="40" y="490" width="130" height="60" as="geometry" />
        </mxCell>
        <mxCell id="m9M5vJSsLMZgpB0wTJ_l-4" value="StoreService" style="html=1;whiteSpace=wrap;" vertex="1" parent="1">
          <mxGeometry x="240" y="500" width="130" height="60" as="geometry" />
        </mxCell>
        <mxCell id="m9M5vJSsLMZgpB0wTJ_l-5" value="MessageService" style="html=1;whiteSpace=wrap;" vertex="1" parent="1">
          <mxGeometry x="410" y="490" width="130" height="60" as="geometry" />
        </mxCell>
        <mxCell id="m9M5vJSsLMZgpB0wTJ_l-6" value="LoggerServcie&lt;span style=&quot;color: rgba(0, 0, 0, 0); font-family: monospace; font-size: 0px; text-align: start; text-wrap: nowrap;&quot;&gt;%3CmxGraphModel%3E%3Croot%3E%3CmxCell%20id%3D%220%22%2F%3E%3CmxCell%20id%3D%221%22%20parent%3D%220%22%2F%3E%3CmxCell%20id%3D%222%22%20value%3D%22MessageService%22%20style%3D%22html%3D1%3BwhiteSpace%3Dwrap%3B%22%20vertex%3D%221%22%20parent%3D%221%22%3E%3CmxGeometry%20x%3D%22410%22%20y%3D%22490%22%20width%3D%22130%22%20height%3D%2260%22%20as%3D%22geometry%22%2F%3E%3C%2FmxCell%3E%3C%2Froot%3E%3C%2FmxGraphModel%3E&lt;/span&gt;" style="html=1;whiteSpace=wrap;" vertex="1" parent="1">
          <mxGeometry x="570" y="490" width="130" height="60" as="geometry" />
        </mxCell>
        <mxCell id="m9M5vJSsLMZgpB0wTJ_l-16" style="edgeStyle=orthogonalEdgeStyle;rounded=0;orthogonalLoop=1;jettySize=auto;html=1;entryX=0.5;entryY=1;entryDx=0;entryDy=0;" edge="1" parent="1" source="m9M5vJSsLMZgpB0wTJ_l-7" target="L0iyq_Gjb_TStywYeha1-2">
          <mxGeometry relative="1" as="geometry" />
        </mxCell>
        <mxCell id="m9M5vJSsLMZgpB0wTJ_l-7" value="ExtrenalsService&lt;span style=&quot;color: rgba(0, 0, 0, 0); font-family: monospace; font-size: 0px; text-align: start; text-wrap: nowrap;&quot;&gt;%3CmxGraphModel%3E%3Croot%3E%3CmxCell%20id%3D%220%22%2F%3E%3CmxCell%20id%3D%221%22%20parent%3D%220%22%2F%3E%3CmxCell%20id%3D%222%22%20value%3D%22LoggerServcie%26lt%3Bspan%20style%3D%26quot%3Bcolor%3A%20rgba(0%2C%200%2C%200%2C%200)%3B%20font-family%3A%20monospace%3B%20font-size%3A%200px%3B%20text-align%3A%20start%3B%20text-wrap%3A%20nowrap%3B%26quot%3B%26gt%3B%253CmxGraphModel%253E%253Croot%253E%253CmxCell%2520id%253D%25220%2522%252F%253E%253CmxCell%2520id%253D%25221%2522%2520parent%253D%25220%2522%252F%253E%253CmxCell%2520id%253D%25222%2522%2520value%253D%2522MessageService%2522%2520style%253D%2522html%253D1%253BwhiteSpace%253Dwrap%253B%2522%2520vertex%253D%25221%2522%2520parent%253D%25221%2522%253E%253CmxGeometry%2520x%253D%2522410%2522%2520y%253D%2522490%2522%2520width%253D%2522130%2522%2520height%253D%252260%2522%2520as%253D%2522geometry%2522%252F%253E%253C%252FmxCell%253E%253C%252Froot%253E%253C%252FmxGraphModel%253E%26lt%3B%2Fspan%26gt%3B%22%20style%3D%22html%3D1%3BwhiteSpace%3Dwrap%3B%22%20vertex%3D%221%22%20parent%3D%221%22%3E%3CmxGeometry%20x%3D%22570%22%20y%3D%22490%22%20width%3D%22130%22%20height%3D%2260%22%20as%3D%22geometry%22%2F%3E%3C%2FmxCell%3E%3C%2Froot%3E%3C%2FmxGraphModel%3E&lt;/span&gt;" style="html=1;whiteSpace=wrap;" vertex="1" parent="1">
          <mxGeometry x="950" y="490" width="130" height="60" as="geometry" />
        </mxCell>
        <mxCell id="m9M5vJSsLMZgpB0wTJ_l-8" value="AdminService&lt;span style=&quot;color: rgba(0, 0, 0, 0); font-family: monospace; font-size: 0px; text-align: start; text-wrap: nowrap;&quot;&gt;%3CmxGraphModel%3E%3Croot%3E%3CmxCell%20id%3D%220%22%2F%3E%3CmxCell%20id%3D%221%22%20parent%3D%220%22%2F%3E%3CmxCell%20id%3D%222%22%20value%3D%22ExtrenalsService%26lt%3Bspan%20style%3D%26quot%3Bcolor%3A%20rgba(0%2C%200%2C%200%2C%200)%3B%20font-family%3A%20monospace%3B%20font-size%3A%200px%3B%20text-align%3A%20start%3B%20text-wrap%3A%20nowrap%3B%26quot%3B%26gt%3B%253CmxGraphModel%253E%253Croot%253E%253CmxCell%2520id%253D%25220%2522%252F%253E%253CmxCell%2520id%253D%25221%2522%2520parent%253D%25220%2522%252F%253E%253CmxCell%2520id%253D%25222%2522%2520value%253D%2522LoggerServcie%2526lt%253Bspan%2520style%253D%2526quot%253Bcolor%253A%2520rgba(0%252C%25200%252C%25200%252C%25200)%253B%2520font-family%253A%2520monospace%253B%2520font-size%253A%25200px%253B%2520text-align%253A%2520start%253B%2520text-wrap%253A%2520nowrap%253B%2526quot%253B%2526gt%253B%25253CmxGraphModel%25253E%25253Croot%25253E%25253CmxCell%252520id%25253D%2525220%252522%25252F%25253E%25253CmxCell%252520id%25253D%2525221%252522%252520parent%25253D%2525220%252522%25252F%25253E%25253CmxCell%252520id%25253D%2525222%252522%252520value%25253D%252522MessageService%252522%252520style%25253D%252522html%25253D1%25253BwhiteSpace%25253Dwrap%25253B%252522%252520vertex%25253D%2525221%252522%252520parent%25253D%2525221%252522%25253E%25253CmxGeometry%252520x%25253D%252522410%252522%252520y%25253D%252522490%252522%252520width%25253D%252522130%252522%252520height%25253D%25252260%252522%252520as%25253D%252522geometry%252522%25252F%25253E%25253C%25252FmxCell%25253E%25253C%25252Froot%25253E%25253C%25252FmxGraphModel%25253E%2526lt%253B%252Fspan%2526gt%253B%2522%2520style%253D%2522html%253D1%253BwhiteSpace%253Dwrap%253B%2522%2520vertex%253D%25221%2522%2520parent%253D%25221%2522%253E%253CmxGeometry%2520x%253D%2522570%2522%2520y%253D%2522490%2522%2520width%253D%2522130%2522%2520height%253D%252260%2522%2520as%253D%2522geometry%2522%252F%253E%253C%252FmxCell%253E%253C%252Froot%253E%253C%252FmxGraphModel%253E%26lt%3B%2Fspan%26gt%3B%22%20style%3D%22html%3D1%3BwhiteSpace%3Dwrap%3B%22%20vertex%3D%221%22%20parent%3D%221%22%3E%3CmxGeometry%20x%3D%22800%22%20y%3D%22490%22%20width%3D%22130%22%20height%3D%2260%22%20as%3D%22geometry%22%2F%3E%3C%2FmxCell%3E%3C%2Froot%3E%3C%2FmxGraphModel%3E&lt;/span&gt;" style="html=1;whiteSpace=wrap;" vertex="1" parent="1">
          <mxGeometry x="1160" y="490" width="130" height="60" as="geometry" />
        </mxCell>
        <mxCell id="m9M5vJSsLMZgpB0wTJ_l-14" style="edgeStyle=orthogonalEdgeStyle;rounded=0;orthogonalLoop=1;jettySize=auto;html=1;entryX=0.75;entryY=1;entryDx=0;entryDy=0;" edge="1" parent="1" source="m9M5vJSsLMZgpB0wTJ_l-9" target="L0iyq_Gjb_TStywYeha1-1">
          <mxGeometry relative="1" as="geometry" />
        </mxCell>
        <mxCell id="m9M5vJSsLMZgpB0wTJ_l-9" value="SecurityService" style="html=1;whiteSpace=wrap;" vertex="1" parent="1">
          <mxGeometry x="740" y="490" width="130" height="60" as="geometry" />
        </mxCell>
        <mxCell id="m9M5vJSsLMZgpB0wTJ_l-10" style="edgeStyle=orthogonalEdgeStyle;rounded=0;orthogonalLoop=1;jettySize=auto;html=1;entryX=0.424;entryY=1.04;entryDx=0;entryDy=0;entryPerimeter=0;" edge="1" parent="1" source="m9M5vJSsLMZgpB0wTJ_l-3" target="z1rswrZgB9SCLob50gjK-2">
          <mxGeometry relative="1" as="geometry" />
        </mxCell>
        <mxCell id="m9M5vJSsLMZgpB0wTJ_l-11" style="edgeStyle=orthogonalEdgeStyle;rounded=0;orthogonalLoop=1;jettySize=auto;html=1;entryX=0.583;entryY=0.972;entryDx=0;entryDy=0;entryPerimeter=0;" edge="1" parent="1" source="m9M5vJSsLMZgpB0wTJ_l-4" target="z1rswrZgB9SCLob50gjK-3">
          <mxGeometry relative="1" as="geometry" />
        </mxCell>
        <mxCell id="m9M5vJSsLMZgpB0wTJ_l-12" style="edgeStyle=orthogonalEdgeStyle;rounded=0;orthogonalLoop=1;jettySize=auto;html=1;entryX=0.664;entryY=1.074;entryDx=0;entryDy=0;entryPerimeter=0;" edge="1" parent="1" source="m9M5vJSsLMZgpB0wTJ_l-5" target="z1rswrZgB9SCLob50gjK-4">
          <mxGeometry relative="1" as="geometry" />
        </mxCell>
        <mxCell id="m9M5vJSsLMZgpB0wTJ_l-13" style="edgeStyle=orthogonalEdgeStyle;rounded=0;orthogonalLoop=1;jettySize=auto;html=1;entryX=0.649;entryY=1.006;entryDx=0;entryDy=0;entryPerimeter=0;" edge="1" parent="1" source="m9M5vJSsLMZgpB0wTJ_l-6" target="tpne8yXfs1ErKmTpTS3r-1">
          <mxGeometry relative="1" as="geometry" />
        </mxCell>
        <mxCell id="m9M5vJSsLMZgpB0wTJ_l-17" style="edgeStyle=orthogonalEdgeStyle;rounded=0;orthogonalLoop=1;jettySize=auto;html=1;entryX=0.599;entryY=0.921;entryDx=0;entryDy=0;entryPerimeter=0;" edge="1" parent="1" source="m9M5vJSsLMZgpB0wTJ_l-7" target="vSsCyjcF-yVz5yhP-Ly6-1">
          <mxGeometry relative="1" as="geometry" />
        </mxCell>
        <mxCell id="m9M5vJSsLMZgpB0wTJ_l-18" style="edgeStyle=orthogonalEdgeStyle;rounded=0;orthogonalLoop=1;jettySize=auto;html=1;entryX=0.424;entryY=1.006;entryDx=0;entryDy=0;entryPerimeter=0;" edge="1" parent="1" source="m9M5vJSsLMZgpB0wTJ_l-8" target="m9M5vJSsLMZgpB0wTJ_l-1">
          <mxGeometry relative="1" as="geometry" />
        </mxCell>
      </root>
    </mxGraphModel>
  </diagram>
</mxfile>
